<svg width="149" height="51" viewBox="0 0 149 51" fill="none" xmlns="http://www.w3.org/2000/svg">
<g clip-path="url(#clip0_1525_5851)">
<path d="M137.135 0.564127H11.8721C11.4155 0.564127 10.9644 0.564127 10.509 0.566617C10.1278 0.569107 9.74965 0.576342 9.36479 0.58243C8.52869 0.592269 7.69455 0.665826 6.86963 0.802461C6.04587 0.942071 5.24791 1.20528 4.50274 1.58317C3.75849 1.96427 3.07845 2.45946 2.48728 3.05078C1.89301 3.64045 1.39764 4.32202 1.02022 5.06929C0.641752 5.81507 0.379324 6.61425 0.241995 7.43921C0.103361 8.26313 0.028761 9.09656 0.0188641 9.93201C0.00730904 10.3138 0.0060888 10.6968 0 11.0786V39.8594C0.0060888 40.246 0.00730904 40.6206 0.0188641 41.0073C0.028764 41.8427 0.103364 42.6761 0.241995 43.5C0.378945 44.3254 0.641388 45.125 1.02022 45.8711C1.39747 46.616 1.89291 47.2948 2.48728 47.8812C3.0762 48.4751 3.75669 48.9706 4.50274 49.3488C5.2479 49.7277 6.04578 49.9925 6.86963 50.1343C7.69469 50.2698 8.52874 50.3434 9.36479 50.3544C9.74965 50.3629 10.1278 50.3677 10.509 50.3677C10.9644 50.3702 11.4156 50.3702 11.8721 50.3702H137.135C137.582 50.3702 138.037 50.3702 138.484 50.3677C138.864 50.3677 139.253 50.3629 139.632 50.3544C140.467 50.344 141.299 50.2704 142.123 50.1343C142.949 49.9915 143.75 49.7268 144.499 49.3488C145.244 48.9704 145.924 48.4749 146.512 47.8812C147.105 47.2925 147.602 46.6142 147.983 45.8711C148.359 45.1245 148.619 44.3249 148.754 43.5C148.893 42.676 148.97 41.8428 148.985 41.0073C148.99 40.6206 148.99 40.246 148.99 39.8594C149 39.407 149 38.9572 149 38.4974V12.4381C149 11.9821 149 11.5297 148.99 11.0786C148.99 10.6968 148.99 10.3138 148.985 9.93196C148.97 9.09644 148.893 8.2632 148.754 7.43916C148.619 6.61467 148.359 5.81556 147.983 5.06924C147.215 3.57141 145.996 2.3522 144.499 1.58306C143.75 1.20609 142.949 0.942952 142.123 0.802349C141.299 0.665112 140.467 0.59153 139.632 0.582256C139.253 0.57618 138.864 0.568883 138.484 0.566455C138.037 0.563965 137.582 0.563965 137.135 0.563965V0.564127Z" fill="black"/>
<path d="M10.516 49.2804C10.1366 49.2804 9.76638 49.2755 9.38998 49.2671C8.61025 49.2569 7.83233 49.189 7.06262 49.064C6.3449 48.9404 5.64962 48.7104 4.99972 48.3818C4.35578 48.0558 3.76846 47.6284 3.26025 47.1159C2.74468 46.6095 2.31545 46.0221 1.98956 45.3771C1.66007 44.7279 1.43205 44.032 1.31344 43.3136C1.18534 42.5418 1.11604 41.7613 1.10612 40.979C1.09823 40.7164 1.08789 39.842 1.08789 39.842V11.0783C1.08789 11.0783 1.0989 10.2174 1.10618 9.96446C1.11568 9.18336 1.18458 8.4041 1.31229 7.63345C1.43113 6.91316 1.65932 6.21525 1.98898 5.56388C2.31367 4.91928 2.74053 4.33147 3.25299 3.82322C3.76487 3.31015 4.35408 2.88055 4.99911 2.55009C5.64752 2.22247 6.34148 1.99416 7.05775 1.8728C7.82999 1.7465 8.6106 1.67822 9.39305 1.66852L10.5166 1.65332H138.479L139.616 1.66913C140.391 1.67835 141.165 1.74602 141.93 1.87158C142.654 1.99446 143.355 2.22437 144.011 2.55374C145.303 3.2197 146.354 4.27332 147.018 5.56692C147.342 6.21379 147.567 6.906 147.684 7.62008C147.813 8.39705 147.886 9.18243 147.9 9.96994C147.904 10.3226 147.904 10.7013 147.904 11.0783C147.914 11.5452 147.914 11.9897 147.914 12.4377V38.4971C147.914 38.9495 147.914 39.3909 147.904 39.8359C147.904 40.2408 147.904 40.6118 147.899 40.9935C147.885 41.767 147.814 42.5384 147.686 43.3014C147.57 44.0249 147.343 44.7263 147.014 45.3808C146.686 46.0189 146.259 46.6012 145.749 47.1062C145.241 47.6215 144.652 48.0514 144.007 48.3794C143.353 48.7106 142.653 48.9414 141.93 49.064C141.16 49.1897 140.382 49.2576 139.603 49.2671C139.238 49.2755 138.856 49.2804 138.485 49.2804L137.135 49.2829L10.516 49.2804Z" fill="black"/>
<path d="M30.8409 25.8413C30.8543 24.802 31.1304 23.783 31.6434 22.8791C32.1564 21.9752 32.8898 21.2157 33.7752 20.6714C33.2127 19.8681 32.4707 19.2069 31.608 18.7406C30.7453 18.2742 29.7858 18.0154 28.8056 17.9847C26.7147 17.7653 24.6876 19.2359 23.6222 19.2359C22.536 19.2359 20.8956 18.0065 19.129 18.0429C17.9864 18.0798 16.8728 18.4121 15.8967 19.0073C14.9207 19.6026 14.1155 20.4405 13.5596 21.4395C11.1514 25.6088 12.9477 31.7362 15.2545 35.1064C16.4086 36.7566 17.7574 38.6 19.5224 38.5347C21.2495 38.463 21.8945 37.4333 23.9793 37.4333C26.0447 37.4333 26.6499 38.5347 28.4506 38.4931C30.3039 38.463 31.4715 36.8355 32.5852 35.1696C33.4144 33.9937 34.0525 32.6941 34.4758 31.319C33.3991 30.8636 32.4803 30.1013 31.8339 29.1272C31.1875 28.1532 30.8422 27.0104 30.8409 25.8413Z" fill="white"/>
<path d="M27.4389 15.7687C28.4494 14.5557 28.9472 12.9965 28.8267 11.4224C27.2829 11.5845 25.8569 12.3223 24.8328 13.4888C24.332 14.0587 23.9485 14.7217 23.7042 15.4398C23.4598 16.158 23.3594 16.9173 23.4087 17.6743C24.1808 17.6822 24.9447 17.5149 25.6429 17.1848C26.341 16.8547 26.9551 16.3705 27.4389 15.7687Z" fill="white"/>
<path d="M52.6728 34.3572H46.779L45.3636 38.5365H42.8672L48.4497 23.0742H51.0434L56.6259 38.5365H54.0869L52.6728 34.3572ZM47.3894 32.4287H52.0612L49.7581 25.646H49.6937L47.3894 32.4287Z" fill="white"/>
<path d="M68.6816 32.9003C68.6816 36.4035 66.8066 38.6543 63.977 38.6543C63.2602 38.6918 62.5474 38.5267 61.9201 38.1779C61.2928 37.8291 60.7764 37.3106 60.43 36.682H60.3765V42.2657H58.0625V27.2631H60.3024V29.1381H60.3449C60.7072 28.5125 61.2323 27.9967 61.8644 27.6458C62.4965 27.2949 63.2119 27.1218 63.9345 27.1451C66.7956 27.1452 68.6816 29.4069 68.6816 32.9003ZM66.3032 32.9003C66.3032 30.618 65.1237 29.1175 63.324 29.1175C61.556 29.1175 60.3668 30.6496 60.3668 32.9003C60.3668 35.1718 61.556 36.6929 63.324 36.6929C65.1237 36.6929 66.3032 35.2034 66.3032 32.9003Z" fill="white"/>
<path d="M81.0898 32.9003C81.0898 36.4035 79.2148 38.6543 76.3852 38.6543C75.6684 38.6918 74.9556 38.5267 74.3283 38.1779C73.701 37.829 73.1846 37.3106 72.8382 36.682H72.7847V42.2657H70.4707V27.2631H72.7105V29.1381H72.7531C73.1154 28.5125 73.6405 27.9967 74.2725 27.6458C74.9046 27.2949 75.62 27.1218 76.3426 27.1451C79.2038 27.1451 81.0898 29.4068 81.0898 32.9003ZM78.7114 32.9003C78.7114 30.618 77.5319 29.1174 75.7322 29.1174C73.9642 29.1174 72.775 30.6496 72.775 32.9003C72.775 35.1718 73.9642 36.6929 75.7322 36.6929C77.5319 36.6929 78.7114 35.2034 78.7114 32.9003H78.7114Z" fill="white"/>
<path d="M89.2906 34.2283C89.4621 35.7617 90.9517 36.7684 92.9872 36.7684C94.9376 36.7684 96.3408 35.7616 96.3408 34.3791C96.3408 33.1789 95.4945 32.4603 93.4906 31.9678L91.4867 31.4851C88.6474 30.7993 87.3293 29.4714 87.3293 27.3167C87.3293 24.6489 89.6542 22.8164 92.9555 22.8164C96.2228 22.8164 98.4627 24.6489 98.5381 27.3167H96.2022C96.0623 25.7736 94.7868 24.8422 92.9227 24.8422C91.0586 24.8422 89.7831 25.7846 89.7831 27.1562C89.7831 28.2494 90.5978 28.8926 92.5907 29.385L94.2943 29.8033C97.4668 30.5536 98.7849 31.8279 98.7849 34.0896C98.7849 36.9824 96.4806 38.7942 92.8157 38.7942C89.3866 38.7942 87.0714 37.025 86.9219 34.2282L89.2906 34.2283Z" fill="white"/>
<path d="M103.779 24.5952V27.2631H105.922V29.0955H103.779V35.3103C103.779 36.2758 104.208 36.7257 105.15 36.7257C105.405 36.7213 105.659 36.7034 105.911 36.6722V38.4937C105.488 38.5729 105.057 38.6087 104.626 38.6007C102.344 38.6007 101.454 37.7434 101.454 35.5571V29.0955H99.8145V27.2631H101.454V24.5952H103.779Z" fill="white"/>
<path d="M107.164 32.9004C107.164 29.3534 109.253 27.1245 112.511 27.1245C115.779 27.1245 117.859 29.3533 117.859 32.9004C117.859 36.4571 115.79 38.6762 112.511 38.6762C109.232 38.6762 107.164 36.4571 107.164 32.9004ZM115.501 32.9004C115.501 30.4672 114.386 29.0312 112.511 29.0312C110.636 29.0312 109.522 30.4782 109.522 32.9004C109.522 35.3432 110.636 36.7684 112.511 36.7684C114.386 36.7684 115.501 35.3432 115.501 32.9004H115.501Z" fill="white"/>
<path d="M119.766 27.263H121.973V29.1818H122.026C122.175 28.5825 122.527 28.0529 123.02 27.682C123.514 27.3111 124.121 27.1215 124.738 27.145C125.004 27.1441 125.27 27.1731 125.531 27.2314V29.3958C125.194 29.2929 124.843 29.2457 124.491 29.256C124.155 29.2423 123.82 29.3016 123.508 29.4297C123.197 29.5578 122.918 29.7517 122.689 29.9981C122.46 30.2445 122.287 30.5376 122.181 30.8572C122.076 31.1768 122.042 31.5153 122.08 31.8496V38.5362H119.766L119.766 27.263Z" fill="white"/>
<path d="M136.2 35.2253C135.889 37.2718 133.896 38.6762 131.346 38.6762C128.067 38.6762 126.031 36.479 126.031 32.9539C126.031 29.4178 128.078 27.1245 131.249 27.1245C134.368 27.1245 136.329 29.267 136.329 32.6851V33.478H128.367V33.6178C128.33 34.0327 128.382 34.4506 128.52 34.8439C128.657 35.2372 128.876 35.5967 129.163 35.8988C129.45 36.2008 129.797 36.4383 130.183 36.5956C130.569 36.7528 130.984 36.8262 131.4 36.8109C131.947 36.8621 132.495 36.7355 132.964 36.4498C133.433 36.1641 133.798 35.7347 134.003 35.2253L136.2 35.2253ZM128.378 31.8607H134.014C134.035 31.4877 133.978 31.1144 133.848 30.7642C133.718 30.4141 133.516 30.0946 133.257 29.826C132.997 29.5573 132.685 29.3452 132.339 29.203C131.994 29.0608 131.623 28.9915 131.249 28.9995C130.872 28.9973 130.499 29.0697 130.15 29.2126C129.801 29.3554 129.484 29.5659 129.217 29.8319C128.95 30.098 128.739 30.4142 128.595 30.7624C128.451 31.1106 128.377 31.4839 128.378 31.8607V31.8607Z" fill="white"/>
<path d="M47.0997 11.4357C47.5848 11.4009 48.0716 11.4742 48.525 11.6503C48.9783 11.8264 49.387 12.1009 49.7214 12.4541C50.0558 12.8072 50.3077 13.2302 50.4589 13.6925C50.6101 14.1548 50.6567 14.6448 50.5956 15.1274C50.5956 17.5009 49.3127 18.8653 47.0997 18.8653H44.416V11.4357H47.0997ZM45.57 17.8146H46.9708C47.3174 17.8353 47.6643 17.7785 47.9862 17.6482C48.3082 17.518 48.597 17.3175 48.8317 17.0616C49.0664 16.8056 49.2411 16.5006 49.343 16.1686C49.4449 15.8366 49.4716 15.4861 49.4209 15.1425C49.4679 14.8003 49.4386 14.4519 49.3351 14.1224C49.2316 13.7928 49.0565 13.4903 48.8223 13.2363C48.5881 12.9824 48.3007 12.7834 47.9806 12.6536C47.6605 12.5238 47.3156 12.4665 46.9708 12.4856H45.57V17.8146Z" fill="white"/>
<path d="M51.8992 16.059C51.864 15.6906 51.9061 15.3188 52.023 14.9676C52.1398 14.6164 52.3288 14.2935 52.5777 14.0196C52.8267 13.7456 53.1302 13.5268 53.4687 13.377C53.8071 13.2273 54.1732 13.1499 54.5433 13.1499C54.9135 13.1499 55.2796 13.2273 55.6181 13.377C55.9565 13.5268 56.26 13.7456 56.509 14.0196C56.7579 14.2935 56.9469 14.6164 57.0637 14.9676C57.1806 15.3188 57.2227 15.6906 57.1875 16.059C57.2234 16.4279 57.1817 16.8002 57.0652 17.152C56.9487 17.5037 56.7598 17.8273 56.5108 18.1017C56.2618 18.3762 55.9581 18.5955 55.6193 18.7456C55.2804 18.8956 54.9139 18.9732 54.5433 18.9732C54.1728 18.9732 53.8063 18.8956 53.4674 18.7456C53.1286 18.5955 52.8249 18.3762 52.5759 18.1017C52.3269 17.8273 52.138 17.5037 52.0215 17.152C51.905 16.8002 51.8633 16.4279 51.8992 16.059ZM56.0493 16.059C56.0493 14.8437 55.5033 14.133 54.5452 14.133C53.5833 14.133 53.0423 14.8437 53.0423 16.0591C53.0423 17.2842 53.5834 17.9894 54.5452 17.9894C55.5034 17.9894 56.0493 17.2793 56.0493 16.059H56.0493Z" fill="white"/>
<path d="M64.2169 18.8651H63.0691L61.9103 14.7357H61.8227L60.6688 18.8651H59.5318L57.9863 13.2583H59.1087L60.1131 17.5366H60.1958L61.3485 13.2583H62.41L63.5628 17.5366H63.6503L64.6498 13.2583H65.7564L64.2169 18.8651Z" fill="white"/>
<path d="M67.0567 13.2583H68.1218V14.149H68.2045C68.3448 13.8291 68.5814 13.5609 68.8813 13.3818C69.1812 13.2028 69.5295 13.1217 69.8777 13.1501C70.1505 13.1295 70.4244 13.1707 70.6792 13.2704C70.9339 13.3701 71.163 13.5259 71.3494 13.7262C71.5358 13.9265 71.6747 14.1661 71.7559 14.4274C71.8371 14.6886 71.8584 14.9648 71.8184 15.2354V18.8651H70.7118V15.5133C70.7118 14.6123 70.3203 14.1642 69.502 14.1642C69.3167 14.1556 69.1318 14.1871 68.9599 14.2566C68.788 14.3261 68.6332 14.432 68.506 14.5669C68.3789 14.7019 68.2824 14.8627 68.2232 15.0385C68.164 15.2142 68.1435 15.4006 68.1632 15.585V18.8651H67.0566L67.0567 13.2583Z" fill="white"/>
<path d="M73.5801 11.0693H74.6866V18.8649H73.5801V11.0693Z" fill="white"/>
<path d="M76.2254 16.0592C76.1901 15.6907 76.2323 15.3189 76.3492 14.9676C76.4661 14.6164 76.6551 14.2935 76.904 14.0196C77.153 13.7457 77.4565 13.5268 77.795 13.377C78.1335 13.2273 78.4996 13.1499 78.8698 13.1499C79.24 13.1499 79.6061 13.2273 79.9446 13.377C80.2831 13.5268 80.5866 13.7457 80.8356 14.0196C81.0845 14.2935 81.2735 14.6164 81.3904 14.9676C81.5073 15.3189 81.5494 15.6907 81.5142 16.0592C81.5501 16.428 81.5084 16.8003 81.3918 17.1521C81.2753 17.5039 81.0864 17.8274 80.8373 18.1018C80.5883 18.3762 80.2846 18.5956 79.9457 18.7456C79.6069 18.8957 79.2404 18.9732 78.8698 18.9732C78.4992 18.9732 78.1327 18.8957 77.7939 18.7456C77.455 18.5956 77.1513 18.3762 76.9023 18.1018C76.6532 17.8274 76.4643 17.5039 76.3478 17.1521C76.2312 16.8003 76.1895 16.428 76.2254 16.0592ZM80.3755 16.0592C80.3755 14.8438 79.8295 14.1331 78.8713 14.1331C77.9095 14.1331 77.3684 14.8438 77.3684 16.0592C77.3684 17.2843 77.9095 17.9895 78.8713 17.9895C79.8295 17.9895 80.3755 17.2794 80.3755 16.0592H80.3755Z" fill="white"/>
<path d="M82.6797 17.2793C82.6797 16.2701 83.4312 15.6882 84.7651 15.6055L86.2838 15.518V15.034C86.2838 14.4419 85.8923 14.1075 85.1359 14.1075C84.5182 14.1075 84.0902 14.3343 83.9674 14.7307H82.8961C83.0092 13.7676 83.9151 13.1499 85.187 13.1499C86.5927 13.1499 87.3855 13.8497 87.3855 15.034V18.865H86.3203V18.077H86.2327C86.055 18.3596 85.8055 18.5901 85.5096 18.7447C85.2138 18.8994 84.8821 18.9728 84.5486 18.9573C84.3133 18.9818 84.0754 18.9567 83.8503 18.8836C83.6252 18.8105 83.418 18.6911 83.2419 18.533C83.0658 18.3749 82.9248 18.1816 82.828 17.9657C82.7311 17.7498 82.6806 17.516 82.6797 17.2793ZM86.2838 16.8002V16.3315L84.9146 16.419C84.1425 16.4707 83.7923 16.7334 83.7923 17.2276C83.7923 17.7323 84.23 18.0259 84.832 18.0259C85.0084 18.0438 85.1865 18.026 85.3559 17.9736C85.5252 17.9211 85.6823 17.8352 85.8177 17.7209C85.9532 17.6065 86.0643 17.4661 86.1443 17.3079C86.2244 17.1497 86.2718 16.9771 86.2838 16.8002Z" fill="white"/>
<path d="M88.8398 16.0591C88.8398 14.2874 89.7506 13.1651 91.1672 13.1651C91.5176 13.1489 91.8654 13.2329 92.1699 13.407C92.4743 13.5812 92.7229 13.8385 92.8866 14.1487H92.9693V11.0693H94.0758V18.8649H93.0155V17.9791H92.9279C92.7516 18.2872 92.4944 18.5413 92.184 18.7137C91.8736 18.8862 91.522 18.9704 91.1672 18.9573C89.7409 18.9574 88.8398 17.835 88.8398 16.0591ZM89.9829 16.0591C89.9829 17.2483 90.5435 17.9639 91.481 17.9639C92.4136 17.9639 92.99 17.238 92.99 16.064C92.99 14.8954 92.4075 14.1591 91.481 14.1591C90.5495 14.1591 89.9829 14.8796 89.9829 16.0591H89.9829Z" fill="white"/>
<path d="M98.6531 16.059C98.6179 15.6906 98.66 15.3188 98.7769 14.9676C98.8937 14.6164 99.0827 14.2935 99.3316 14.0196C99.5806 13.7456 99.8841 13.5268 100.223 13.377C100.561 13.2273 100.927 13.1499 101.297 13.1499C101.667 13.1499 102.033 13.2273 102.372 13.377C102.71 13.5268 103.014 13.7456 103.263 14.0196C103.512 14.2935 103.701 14.6164 103.818 14.9676C103.934 15.3188 103.977 15.6906 103.941 16.059C103.977 16.4279 103.936 16.8002 103.819 17.152C103.703 17.5037 103.514 17.8273 103.265 18.1017C103.016 18.3762 102.712 18.5955 102.373 18.7456C102.034 18.8956 101.668 18.9732 101.297 18.9732C100.927 18.9732 100.56 18.8956 100.221 18.7456C99.8825 18.5955 99.5788 18.3762 99.3298 18.1017C99.0808 17.8273 98.8919 17.5037 98.7754 17.152C98.6589 16.8002 98.6172 16.4279 98.6531 16.059ZM102.803 16.059C102.803 14.8437 102.257 14.133 101.299 14.133C100.337 14.133 99.7962 14.8437 99.7962 16.0591C99.7962 17.2842 100.337 17.9894 101.299 17.9894C102.257 17.9894 102.803 17.2793 102.803 16.059Z" fill="white"/>
<path d="M105.428 13.2583H106.493V14.149H106.576C106.716 13.8291 106.952 13.5609 107.252 13.3818C107.552 13.2028 107.901 13.1217 108.249 13.1501C108.522 13.1295 108.796 13.1707 109.05 13.2704C109.305 13.3701 109.534 13.5259 109.72 13.7262C109.907 13.9265 110.046 14.1661 110.127 14.4274C110.208 14.6886 110.23 14.9648 110.189 15.2354V18.8651H109.083V15.5133C109.083 14.6123 108.691 14.1642 107.873 14.1642C107.688 14.1556 107.503 14.1871 107.331 14.2566C107.159 14.3261 107.004 14.432 106.877 14.5669C106.75 14.7019 106.653 14.8627 106.594 15.0385C106.535 15.2142 106.515 15.4006 106.534 15.585V18.8651H105.428V13.2583Z" fill="white"/>
<path d="M116.441 11.8623V13.2838H117.656V14.2158H116.441V17.0989C116.441 17.6862 116.683 17.9434 117.234 17.9434C117.375 17.9429 117.516 17.9344 117.656 17.9178V18.8395C117.457 18.8751 117.256 18.894 117.054 18.8961C115.823 18.8961 115.333 18.4632 115.333 17.3822V14.2158H114.443V13.2837H115.333V11.8623H116.441Z" fill="white"/>
<path d="M119.168 11.0693H120.265V14.1591H120.352C120.499 13.8362 120.742 13.5665 121.048 13.3868C121.354 13.2071 121.708 13.126 122.062 13.1547C122.333 13.14 122.605 13.1853 122.856 13.2874C123.108 13.3896 123.335 13.5461 123.519 13.7457C123.703 13.9454 123.842 14.1832 123.923 14.4424C124.005 14.7016 124.029 14.9756 123.993 15.245V18.8649H122.885V15.518C122.885 14.6224 122.468 14.1688 121.686 14.1688C121.496 14.1532 121.305 14.1794 121.126 14.2454C120.947 14.3115 120.784 14.4159 120.65 14.5513C120.515 14.6867 120.412 14.8498 120.347 15.0293C120.282 15.2088 120.258 15.4002 120.275 15.5903V18.8649H119.168L119.168 11.0693Z" fill="white"/>
<path d="M130.444 17.3512C130.293 17.8636 129.968 18.3068 129.524 18.6034C129.079 18.8999 128.545 19.0308 128.014 18.9733C127.645 18.983 127.278 18.9123 126.939 18.7659C126.599 18.6196 126.296 18.4012 126.049 18.1258C125.803 17.8505 125.619 17.5248 125.511 17.1714C125.404 16.818 125.374 16.4453 125.424 16.0793C125.375 15.7121 125.405 15.3386 125.513 14.9842C125.621 14.6297 125.803 14.3025 126.048 14.0248C126.294 13.747 126.596 13.5252 126.934 13.3742C127.272 13.2233 127.639 13.1468 128.009 13.15C129.57 13.15 130.511 14.2158 130.511 15.9765V16.3626H126.551V16.4246C126.534 16.6304 126.56 16.8375 126.627 17.0327C126.695 17.2278 126.802 17.4068 126.943 17.558C127.083 17.7092 127.254 17.8294 127.444 17.9108C127.634 17.9923 127.838 18.0331 128.045 18.0309C128.309 18.0626 128.578 18.015 128.815 17.8939C129.053 17.7729 129.249 17.584 129.379 17.3511L130.444 17.3512ZM126.551 15.5442H129.383C129.397 15.3561 129.372 15.167 129.308 14.9893C129.245 14.8116 129.145 14.6492 129.015 14.5124C128.885 14.3756 128.728 14.2675 128.554 14.1951C128.379 14.1226 128.192 14.0874 128.003 14.0918C127.812 14.0894 127.622 14.1253 127.445 14.1974C127.267 14.2696 127.106 14.3765 126.971 14.5119C126.836 14.6472 126.729 14.8083 126.657 14.9856C126.585 15.1629 126.549 15.3529 126.551 15.5442H126.551Z" fill="white"/>
</g>
<defs>
<clipPath id="clip0_1525_5851">
<rect width="149" height="49.8061" fill="white" transform="translate(0 0.563965)"/>
</clipPath>
</defs>
</svg>
