<svg width="169" height="51" viewBox="0 0 169 51" fill="none" xmlns="http://www.w3.org/2000/svg">
<g clip-path="url(#clip0_1525_5886)">
<path fill-rule="evenodd" clip-rule="evenodd" d="M162.498 50.564H6.2523C2.80639 50.564 0 47.746 0 44.314V6.81396C0 3.36945 2.80639 0.563965 6.2523 0.563965H162.498C165.941 0.563965 168.75 3.36945 168.75 6.81396V44.314C168.75 47.746 165.941 50.564 162.498 50.564Z" fill="black"/>
<path fill-rule="evenodd" clip-rule="evenodd" d="M162.498 1.56459C165.388 1.56459 167.753 3.92431 167.753 6.81396V44.314C167.753 47.2036 165.403 49.5633 162.498 49.5633H6.2523C3.36209 49.5633 0.996518 47.2036 0.996518 44.314V6.81396C0.996518 3.92431 3.34656 1.56459 6.2523 1.56459H162.498ZM162.498 0.563965H6.2523C2.80639 0.563965 0 3.38192 0 6.81396V44.314C0 47.7585 2.80639 50.564 6.2523 50.564H162.498C165.941 50.564 168.75 47.7585 168.75 44.314V6.81396C168.75 3.38192 165.941 0.563965 162.498 0.563965Z" fill="black"/>
<path d="M88.8989 17.1039C87.772 17.1039 86.8221 16.708 86.0708 15.9287C85.3258 15.1712 84.9098 14.127 84.9284 13.0609C84.9284 11.9231 85.3134 10.9599 86.0708 10.1962C86.819 9.41688 87.7689 9.021 88.8958 9.021C90.0103 9.021 90.9603 9.41688 91.7239 10.1962C92.4814 10.9848 92.8664 11.9481 92.8664 13.0609C92.8539 14.2018 92.469 15.165 91.7239 15.9256C90.9758 16.7111 90.0258 17.1039 88.8989 17.1039ZM55.3683 17.1039C54.2662 17.1039 53.3101 16.7143 52.5278 15.9443C51.7517 15.1775 51.3574 14.208 51.3574 13.064C51.3574 11.92 51.7517 10.9505 52.5278 10.1837C53.2946 9.41376 54.2507 9.02411 55.3683 9.02411C55.9147 9.02411 56.4455 9.13322 56.9547 9.35454C57.4545 9.56962 57.8611 9.86264 58.1623 10.2211L58.2368 10.3115L57.3955 11.1407L57.3086 11.0378C56.8336 10.4705 56.1972 10.1931 55.3559 10.1931C54.6046 10.1931 53.9496 10.4611 53.4094 10.9911C52.8662 11.5241 52.5899 12.2224 52.5899 13.0671C52.5899 13.9119 52.8662 14.6101 53.4094 15.1432C53.9496 15.6731 54.6046 15.9412 55.3559 15.9412C56.1568 15.9412 56.8305 15.6731 57.3551 15.1432C57.6656 14.8315 57.858 14.3951 57.9263 13.8433H55.2286V12.6775H59.0843L59.0998 12.7835C59.1277 12.9798 59.1557 13.1825 59.1557 13.3695C59.1557 14.4449 58.8328 15.3146 58.1933 15.9568C57.4669 16.7174 56.5169 17.1039 55.3683 17.1039ZM99.9506 16.9387H98.7616L95.1202 11.0877L95.1512 12.1413V16.9356H93.9622V9.18933H95.3188L95.3561 9.24855L98.7802 14.7598L98.7492 13.7093V9.18933H99.9506V16.9387ZM79.9645 16.9387H78.76V10.3552H76.6707V9.18933H82.0506V10.3552H79.9614V16.9387H79.9645ZM75.6897 16.9387H74.4883V9.18933H75.6897V16.9387ZM68.9376 16.9387H67.7362V10.3552H65.647V9.18933H71.0269V10.3552H68.9376V16.9387ZM64.8864 16.9262H60.2795V9.18933H64.8864V10.3552H61.484V12.4811H64.5542V13.6345H61.484V15.7604H64.8864V16.9262ZM86.9525 15.1276C87.4895 15.6669 88.1415 15.9381 88.8989 15.9381C89.6781 15.9381 90.3145 15.6731 90.8454 15.1276C91.3731 14.5977 91.6401 13.9025 91.6401 13.064C91.6401 12.2255 91.3731 11.5272 90.8485 11.0004C90.3114 10.4611 89.6564 10.1899 88.902 10.1899C88.1228 10.1899 87.4864 10.4549 86.9587 11.0004C86.4309 11.5303 86.164 12.2255 86.164 13.064C86.164 13.9025 86.4278 14.6008 86.9525 15.1276Z" fill="white"/>
<path fill-rule="evenodd" clip-rule="evenodd" d="M84.8165 27.7585C81.8828 27.7585 79.5048 29.9935 79.5048 33.0764C79.5048 36.1313 81.8983 38.3944 84.8165 38.3944C87.7502 38.3944 90.1282 36.1438 90.1282 33.0764C90.1282 29.9935 87.7502 27.7585 84.8165 27.7585ZM84.8165 36.2872C83.2115 36.2872 81.83 34.953 81.83 33.064C81.83 31.1469 83.2146 29.8408 84.8165 29.8408C86.4215 29.8408 87.803 31.1469 87.803 33.064C87.8061 34.9655 86.4215 36.2872 84.8165 36.2872ZM73.2277 27.7585C70.294 27.7585 67.916 29.9935 67.916 33.0764C67.916 36.1313 70.3095 38.3944 73.2277 38.3944C76.1614 38.3944 78.5394 36.1438 78.5394 33.0764C78.5394 29.9935 76.1583 27.7585 73.2277 27.7585ZM73.2277 36.2872C71.6227 36.2872 70.2412 34.953 70.2412 33.064C70.2412 31.1469 71.6258 29.8408 73.2277 29.8408C74.8327 29.8408 76.2141 31.1469 76.2141 33.064C76.2141 34.9655 74.8327 36.2872 73.2277 36.2872ZM59.4378 29.3825V31.6332H64.8178C64.6533 32.8956 64.2373 33.8277 63.6009 34.4667C62.8124 35.2585 61.5954 36.1188 59.4503 36.1188C56.1441 36.1188 53.5581 33.438 53.5581 30.1182C53.5581 26.7984 56.1441 24.1176 59.4503 24.1176C61.2353 24.1176 62.5361 24.8252 63.5015 25.7292L65.091 24.1332C63.7499 22.8426 61.9648 21.8545 59.4627 21.8545C54.9271 21.8545 51.1211 25.564 51.1211 30.1057C51.1211 34.66 54.924 38.357 59.4627 38.357C61.9121 38.357 63.7499 37.5527 65.2028 36.0378C66.6836 34.5509 67.1523 32.453 67.1523 30.7604C67.1523 30.2335 67.112 29.7597 67.0282 29.3576H59.4347C59.4378 29.3545 59.4378 29.3825 59.4378 29.3825ZM115.842 31.1344C115.398 29.9405 114.057 27.746 111.307 27.746C108.581 27.746 106.315 29.9 106.315 33.064C106.315 36.0503 108.556 38.3819 111.57 38.3819C113.992 38.3819 115.401 36.895 115.982 36.0222L114.184 34.8127C113.588 35.7011 112.759 36.284 111.583 36.284C110.394 36.284 109.562 35.7416 109.009 34.6724L116.09 31.7267C116.09 31.7298 115.842 31.1344 115.842 31.1344ZM108.621 32.9112C108.565 30.857 110.211 29.8127 111.387 29.8127C112.315 29.8127 113.088 30.271 113.352 30.938L108.621 32.9112ZM102.869 38.064H105.194V22.4405H102.869V38.064ZM99.0503 28.9399H98.9665C98.4418 28.3133 97.4453 27.746 96.1725 27.746C93.5306 27.746 91.0967 30.0808 91.0967 33.0796C91.0967 36.0658 93.5182 38.3726 96.1725 38.3726C97.4298 38.3726 98.4418 37.8021 98.9665 37.1631H99.0503V37.9268C99.0503 39.9561 97.9699 41.0503 96.2284 41.0503C94.8034 41.0503 93.9187 40.0216 93.5586 39.1612L91.5376 40.0091C92.1181 41.4118 93.6672 43.1481 96.2253 43.1481C98.9509 43.1481 101.261 41.5365 101.261 37.6057V28.064H99.0627V28.9399C99.0658 28.9399 99.0503 28.9399 99.0503 28.9399ZM96.3805 36.2872C94.7755 36.2872 93.4344 34.9405 93.4344 33.0796C93.4344 31.203 94.7755 29.8439 96.3805 29.8439C97.9699 29.8439 99.2024 31.2186 99.2024 33.0796C99.2179 34.9405 97.9731 36.2872 96.3805 36.2872ZM126.729 22.4405H121.169V38.064H123.495V32.1475H126.732C129.306 32.1475 131.836 30.2741 131.836 27.3003C131.836 24.3264 129.315 22.4405 126.729 22.4405ZM126.798 29.9655H123.491V24.6039H126.798C128.539 24.6039 129.523 26.0471 129.523 27.2847C129.523 28.5097 128.527 29.9655 126.798 29.9655ZM141.156 27.7304C139.467 27.7304 137.725 28.4817 137.005 30.1182L139.066 30.9786C139.51 30.1182 140.324 29.8252 141.184 29.8252C142.388 29.8252 143.605 30.5484 143.633 31.8389V32.0041C143.217 31.7672 142.304 31.4056 141.211 31.4056C138.986 31.4056 136.729 32.6276 136.729 34.9187C136.729 37.0166 138.554 38.3632 140.587 38.3632C142.149 38.3632 143.009 37.6556 143.546 36.8358H143.63V38.0453H145.871V32.0602C145.871 29.2734 143.81 27.7304 141.156 27.7304ZM140.864 36.2872C140.103 36.2872 139.038 35.9131 139.038 34.953C139.038 33.7435 140.367 33.2853 141.5 33.2853C142.525 33.2853 143.009 33.5066 143.617 33.8121C143.45 35.2148 142.27 36.2747 140.864 36.2872ZM154.048 28.064L151.378 34.8408H151.295L148.529 28.064H146.026L150.177 37.5372L147.811 42.8021H150.233L156.619 28.064H154.048ZM133.118 38.064H135.443V22.4405H133.118V38.064Z" fill="white"/>
<path fill-rule="evenodd" clip-rule="evenodd" d="M12.99 9.98065C12.6299 10.3703 12.4219 10.9657 12.4219 11.745V39.3853C12.4219 40.1646 12.6299 40.76 13.0024 41.134L13.0986 41.2182L28.5214 25.7319V25.3859L13.0862 9.89648L12.99 9.98065Z" fill="url(#paint0_linear_1525_5886)"/>
<path fill-rule="evenodd" clip-rule="evenodd" d="M33.6519 30.9103L28.5078 25.7451V25.3835L33.6519 20.2183L33.7636 20.2868L39.8483 23.7594C41.5899 24.7444 41.5899 26.3716 39.8483 27.3691L33.7636 30.8417L33.6519 30.9103Z" fill="url(#paint1_linear_1525_5886)"/>
<path fill-rule="evenodd" clip-rule="evenodd" d="M33.7631 30.8414L28.5073 25.564L12.9883 41.1469C13.5564 41.7579 14.5094 41.8264 15.5743 41.231L33.7631 30.8414Z" fill="url(#paint2_linear_1525_5886)"/>
<path fill-rule="evenodd" clip-rule="evenodd" d="M33.7631 20.2865L15.5743 9.91245C14.5094 9.30148 13.5533 9.38565 12.9883 9.99662L28.5073 25.564L33.7631 20.2865Z" fill="url(#paint3_linear_1525_5886)"/>
<path opacity="0.2" fill-rule="evenodd" clip-rule="evenodd" d="M33.6527 30.729L15.5879 41.0345C14.579 41.6174 13.6787 41.5768 13.0982 41.0469L13.002 41.1436L13.0982 41.2277C13.6787 41.7545 14.579 41.7982 15.5879 41.2153L33.7768 30.8412L33.6527 30.729Z" fill="black"/>
<path opacity="0.12" fill-rule="evenodd" clip-rule="evenodd" d="M39.8487 27.188L33.6367 30.7292L33.7485 30.8414L39.8331 27.3688C40.7055 26.8701 41.1339 26.2155 41.1339 25.564C41.0811 26.1625 40.6372 26.7298 39.8487 27.188Z" fill="black"/>
<path opacity="0.25" fill-rule="evenodd" clip-rule="evenodd" d="M15.576 10.0933L39.8494 23.94C40.6379 24.3857 41.0819 24.9686 41.1502 25.564C41.1502 24.9125 40.7218 24.2579 39.8494 23.7592L15.576 9.91253C13.8344 8.91191 12.4219 9.74732 12.4219 11.7454V11.9262C12.4219 9.925 13.8344 9.10517 15.576 10.0933Z" fill="white"/>
</g>
<defs>
<linearGradient id="paint0_linear_1525_5886" x1="27.138" y1="11.4468" x2="2.41999" y2="18.0059" gradientUnits="userSpaceOnUse">
<stop stop-color="#00A0FF"/>
<stop offset="0.00657" stop-color="#00A1FF"/>
<stop offset="0.2601" stop-color="#00BEFF"/>
<stop offset="0.5122" stop-color="#00D2FF"/>
<stop offset="0.7604" stop-color="#00DFFF"/>
<stop offset="1" stop-color="#00E3FF"/>
</linearGradient>
<linearGradient id="paint1_linear_1525_5886" x1="42.1195" y1="25.5643" x2="11.9973" y2="25.5643" gradientUnits="userSpaceOnUse">
<stop stop-color="#FFE000"/>
<stop offset="0.4087" stop-color="#FFBD00"/>
<stop offset="0.7754" stop-color="#FFA500"/>
<stop offset="1" stop-color="#FF9C00"/>
</linearGradient>
<linearGradient id="paint2_linear_1525_5886" x1="30.9052" y1="28.4356" x2="10.9517" y2="61.8812" gradientUnits="userSpaceOnUse">
<stop stop-color="#FF3A44"/>
<stop offset="1" stop-color="#C31162"/>
</linearGradient>
<linearGradient id="paint3_linear_1525_5886" x1="9.08043" y1="0.787441" x2="17.9825" y2="15.7248" gradientUnits="userSpaceOnUse">
<stop stop-color="#32A071"/>
<stop offset="0.0685" stop-color="#2DA771"/>
<stop offset="0.4762" stop-color="#15CF74"/>
<stop offset="0.8009" stop-color="#06E775"/>
<stop offset="1" stop-color="#00F076"/>
</linearGradient>
<clipPath id="clip0_1525_5886">
<rect width="168.75" height="50" fill="white" transform="translate(0 0.563965)"/>
</clipPath>
</defs>
</svg>
