<svg width="380" height="550" viewBox="0 0 380 550" fill="none" xmlns="http://www.w3.org/2000/svg">
<g clip-path="url(#clip0_1303_3365)">
<rect x="0.666016" width="378.667" height="550" rx="20" fill="#F8F8F8"/>
<path d="M59.746 94.48C57.6927 94.48 55.8927 94.12 54.346 93.4C52.7993 92.68 51.586 91.6533 50.706 90.32C49.8527 88.9867 49.4127 87.4 49.386 85.56H53.866C53.8927 87.0533 54.4127 88.32 55.426 89.36C56.4393 90.4 57.866 90.92 59.706 90.92C61.3327 90.92 62.5993 90.5333 63.506 89.76C64.4393 88.96 64.906 87.9467 64.906 86.72C64.906 85.7333 64.6794 84.9333 64.226 84.32C63.7994 83.7067 63.1994 83.2 62.426 82.8C61.6793 82.4 60.8127 82.04 59.826 81.72C58.8393 81.4 57.7993 81.0533 56.706 80.68C54.546 79.96 52.9193 79.0267 51.826 77.88C50.7593 76.7333 50.226 75.2267 50.226 73.36C50.1993 71.7867 50.5593 70.4133 51.306 69.24C52.0793 68.0667 53.146 67.16 54.506 66.52C55.8927 65.8533 57.506 65.52 59.346 65.52C61.1593 65.52 62.746 65.8533 64.106 66.52C65.4927 67.1867 66.5727 68.12 67.346 69.32C68.1193 70.4933 68.5193 71.8667 68.546 73.44H64.066C64.066 72.72 63.8794 72.04 63.506 71.4C63.1327 70.7333 62.586 70.1867 61.866 69.76C61.146 69.3333 60.266 69.12 59.226 69.12C57.8927 69.0933 56.786 69.4267 55.906 70.12C55.0527 70.8133 54.626 71.7733 54.626 73C54.626 74.0933 54.946 74.9333 55.586 75.52C56.226 76.1067 57.106 76.6 58.226 77C59.346 77.3733 60.626 77.8133 62.066 78.32C63.4527 78.7733 64.6927 79.32 65.786 79.96C66.8793 80.6 67.746 81.44 68.386 82.48C69.0527 83.52 69.386 84.84 69.386 86.44C69.386 87.8533 69.026 89.1733 68.306 90.4C67.586 91.6 66.506 92.5867 65.066 93.36C63.626 94.1067 61.8527 94.48 59.746 94.48ZM79.3816 94.48C77.7016 94.48 76.315 94.2 75.2216 93.64C74.1283 93.08 73.315 92.3467 72.7816 91.44C72.2483 90.5067 71.9816 89.4933 71.9816 88.4C71.9816 86.48 72.7283 84.96 74.2216 83.84C75.715 82.72 77.8483 82.16 80.6216 82.16H85.8216V81.8C85.8216 80.2533 85.395 79.0933 84.5416 78.32C83.715 77.5467 82.635 77.16 81.3016 77.16C80.1283 77.16 79.1016 77.4533 78.2216 78.04C77.3683 78.6 76.8483 79.44 76.6616 80.56H72.4216C72.555 79.12 73.035 77.8933 73.8616 76.88C74.715 75.84 75.7816 75.0533 77.0616 74.52C78.3683 73.96 79.795 73.68 81.3416 73.68C84.115 73.68 86.2616 74.4133 87.7816 75.88C89.3016 77.32 90.0616 79.2933 90.0616 81.8V94H86.3816L86.0216 90.6C85.4616 91.6933 84.6483 92.6133 83.5816 93.36C82.515 94.1067 81.115 94.48 79.3816 94.48ZM80.2216 91.04C81.3683 91.04 82.3283 90.7733 83.1016 90.24C83.9016 89.68 84.515 88.9467 84.9416 88.04C85.395 87.1333 85.675 86.1333 85.7816 85.04H81.0616C79.3816 85.04 78.1816 85.3333 77.4616 85.92C76.7683 86.5067 76.4216 87.24 76.4216 88.12C76.4216 89.0267 76.755 89.7467 77.4216 90.28C78.115 90.7867 79.0483 91.04 80.2216 91.04ZM98.7013 94L91.2613 74.16H95.7013L101.221 89.96L106.741 74.16H111.141L103.741 94H98.7013ZM115.826 70.4C115.026 70.4 114.359 70.16 113.826 69.68C113.319 69.1733 113.066 68.5467 113.066 67.8C113.066 67.0533 113.319 66.44 113.826 65.96C114.359 65.4533 115.026 65.2 115.826 65.2C116.626 65.2 117.279 65.4533 117.786 65.96C118.319 66.44 118.586 67.0533 118.586 67.8C118.586 68.5467 118.319 69.1733 117.786 69.68C117.279 70.16 116.626 70.4 115.826 70.4ZM113.706 94V74.16H117.946V94H113.706ZM122.343 94V74.16H126.103L126.423 77.64C127.036 76.4133 127.93 75.4533 129.103 74.76C130.303 74.04 131.676 73.68 133.223 73.68C135.623 73.68 137.503 74.4267 138.863 75.92C140.25 77.4133 140.943 79.64 140.943 82.6V94H136.743V83.04C136.743 79.2 135.17 77.28 132.023 77.28C130.45 77.28 129.143 77.84 128.103 78.96C127.09 80.08 126.583 81.68 126.583 83.76V94H122.343ZM152.857 87.92C151.817 87.92 150.857 87.8 149.977 87.56L148.257 89.24C148.55 89.4267 148.91 89.5867 149.337 89.72C149.763 89.8533 150.363 89.9733 151.137 90.08C151.91 90.1867 152.963 90.2933 154.297 90.4C156.937 90.64 158.843 91.28 160.017 92.32C161.19 93.3333 161.777 94.6933 161.777 96.4C161.777 97.5733 161.457 98.68 160.817 99.72C160.203 100.787 159.23 101.64 157.897 102.28C156.59 102.947 154.91 103.28 152.857 103.28C150.083 103.28 147.83 102.747 146.097 101.68C144.39 100.64 143.537 99.0533 143.537 96.92C143.537 96.0933 143.75 95.2667 144.177 94.44C144.63 93.64 145.337 92.88 146.297 92.16C145.737 91.92 145.243 91.6667 144.817 91.4C144.417 91.1067 144.057 90.8133 143.737 90.52V89.56L147.177 86.04C145.63 84.7067 144.857 82.96 144.857 80.8C144.857 79.4933 145.163 78.3067 145.777 77.24C146.417 76.1467 147.337 75.28 148.537 74.64C149.737 74 151.177 73.68 152.857 73.68C153.977 73.68 155.017 73.84 155.977 74.16H163.377V76.96L159.857 77.16C160.497 78.2533 160.817 79.4667 160.817 80.8C160.817 82.1333 160.497 83.3333 159.857 84.4C159.243 85.4667 158.337 86.32 157.137 86.96C155.963 87.6 154.537 87.92 152.857 87.92ZM152.857 84.6C154.083 84.6 155.07 84.28 155.817 83.64C156.59 82.9733 156.977 82.04 156.977 80.84C156.977 79.6133 156.59 78.68 155.817 78.04C155.07 77.4 154.083 77.08 152.857 77.08C151.603 77.08 150.59 77.4 149.817 78.04C149.07 78.68 148.697 79.6133 148.697 80.84C148.697 82.04 149.07 82.9733 149.817 83.64C150.59 84.28 151.603 84.6 152.857 84.6ZM147.537 96.52C147.537 97.6667 148.043 98.52 149.057 99.08C150.07 99.6667 151.337 99.96 152.857 99.96C154.323 99.96 155.51 99.64 156.417 99C157.323 98.3867 157.777 97.56 157.777 96.52C157.777 95.7467 157.47 95.08 156.857 94.52C156.243 93.9867 155.083 93.6533 153.377 93.52C152.097 93.44 150.963 93.32 149.977 93.16C149.043 93.6667 148.403 94.2133 148.057 94.8C147.71 95.3867 147.537 95.96 147.537 96.52ZM57.066 142.48C55.386 142.48 53.9993 142.2 52.906 141.64C51.8127 141.08 50.9993 140.347 50.466 139.44C49.9327 138.507 49.666 137.493 49.666 136.4C49.666 134.48 50.4127 132.96 51.906 131.84C53.3993 130.72 55.5327 130.16 58.306 130.16H63.506V129.8C63.506 128.253 63.0793 127.093 62.226 126.32C61.3993 125.547 60.3193 125.16 58.986 125.16C57.8127 125.16 56.786 125.453 55.906 126.04C55.0527 126.6 54.5327 127.44 54.346 128.56H50.106C50.2393 127.12 50.7193 125.893 51.546 124.88C52.3993 123.84 53.466 123.053 54.746 122.52C56.0527 121.96 57.4793 121.68 59.026 121.68C61.7993 121.68 63.946 122.413 65.466 123.88C66.986 125.32 67.746 127.293 67.746 129.8V142H64.066L63.706 138.6C63.146 139.693 62.3327 140.613 61.266 141.36C60.1993 142.107 58.7993 142.48 57.066 142.48ZM57.906 139.04C59.0527 139.04 60.0127 138.773 60.786 138.24C61.586 137.68 62.1993 136.947 62.626 136.04C63.0793 135.133 63.3593 134.133 63.466 133.04H58.746C57.066 133.04 55.866 133.333 55.146 133.92C54.4527 134.507 54.106 135.24 54.106 136.12C54.106 137.027 54.4393 137.747 55.106 138.28C55.7993 138.787 56.7327 139.04 57.906 139.04ZM80.8898 142.48C78.9431 142.48 77.1964 142.04 75.6498 141.16C74.1298 140.28 72.9298 139.067 72.0498 137.52C71.1964 135.947 70.7698 134.133 70.7698 132.08C70.7698 130.027 71.1964 128.227 72.0498 126.68C72.9298 125.107 74.1298 123.88 75.6498 123C77.1964 122.12 78.9431 121.68 80.8898 121.68C83.3431 121.68 85.3964 122.32 87.0498 123.6C88.7298 124.88 89.8098 126.613 90.2898 128.8H85.8498C85.5831 127.707 84.9964 126.853 84.0898 126.24C83.1831 125.627 82.1164 125.32 80.8898 125.32C79.8498 125.32 78.8898 125.587 78.0098 126.12C77.1298 126.627 76.4231 127.387 75.8898 128.4C75.3564 129.387 75.0898 130.613 75.0898 132.08C75.0898 133.547 75.3564 134.787 75.8898 135.8C76.4231 136.787 77.1298 137.547 78.0098 138.08C78.8898 138.613 79.8498 138.88 80.8898 138.88C82.1164 138.88 83.1831 138.573 84.0898 137.96C84.9964 137.347 85.5831 136.48 85.8498 135.36H90.2898C89.8364 137.493 88.7698 139.213 87.0898 140.52C85.4098 141.827 83.3431 142.48 80.8898 142.48ZM103.088 142.48C101.142 142.48 99.3949 142.04 97.8482 141.16C96.3282 140.28 95.1282 139.067 94.2482 137.52C93.3949 135.947 92.9682 134.133 92.9682 132.08C92.9682 130.027 93.3949 128.227 94.2482 126.68C95.1282 125.107 96.3282 123.88 97.8482 123C99.3949 122.12 101.142 121.68 103.088 121.68C105.542 121.68 107.595 122.32 109.248 123.6C110.928 124.88 112.008 126.613 112.488 128.8H108.048C107.782 127.707 107.195 126.853 106.288 126.24C105.382 125.627 104.315 125.32 103.088 125.32C102.048 125.32 101.088 125.587 100.208 126.12C99.3282 126.627 98.6215 127.387 98.0882 128.4C97.5549 129.387 97.2882 130.613 97.2882 132.08C97.2882 133.547 97.5549 134.787 98.0882 135.8C98.6215 136.787 99.3282 137.547 100.208 138.08C101.088 138.613 102.048 138.88 103.088 138.88C104.315 138.88 105.382 138.573 106.288 137.96C107.195 137.347 107.782 136.48 108.048 135.36H112.488C112.035 137.493 110.968 139.213 109.288 140.52C107.608 141.827 105.542 142.48 103.088 142.48ZM125.167 142.48C123.273 142.48 121.567 142.053 120.047 141.2C118.553 140.32 117.367 139.107 116.487 137.56C115.607 135.987 115.167 134.16 115.167 132.08C115.167 130 115.607 128.187 116.487 126.64C117.393 125.067 118.607 123.853 120.127 123C121.647 122.12 123.34 121.68 125.207 121.68C127.1 121.68 128.793 122.12 130.287 123C131.807 123.853 133.007 125.067 133.887 126.64C134.793 128.187 135.247 130 135.247 132.08C135.247 134.16 134.793 135.987 133.887 137.56C133.007 139.107 131.807 140.32 130.287 141.2C128.767 142.053 127.06 142.48 125.167 142.48ZM125.167 138.84C126.18 138.84 127.113 138.587 127.967 138.08C128.847 137.573 129.553 136.827 130.087 135.84C130.62 134.827 130.887 133.573 130.887 132.08C130.887 130.587 130.62 129.347 130.087 128.36C129.58 127.347 128.887 126.587 128.007 126.08C127.153 125.573 126.22 125.32 125.207 125.32C124.193 125.32 123.247 125.573 122.367 126.08C121.513 126.587 120.82 127.347 120.287 128.36C119.753 129.347 119.487 130.587 119.487 132.08C119.487 133.573 119.753 134.827 120.287 135.84C120.82 136.827 121.513 137.573 122.367 138.08C123.22 138.587 124.153 138.84 125.167 138.84ZM145.952 142.48C143.552 142.48 141.659 141.733 140.272 140.24C138.912 138.747 138.232 136.52 138.232 133.56V122.16H142.472V133.12C142.472 136.96 144.045 138.88 147.192 138.88C148.765 138.88 150.059 138.32 151.072 137.2C152.085 136.08 152.592 134.48 152.592 132.4V122.16H156.832V142H153.072L152.752 138.52C152.139 139.747 151.232 140.72 150.032 141.44C148.859 142.133 147.499 142.48 145.952 142.48ZM161.026 142V122.16H164.786L165.106 125.64C165.719 124.413 166.612 123.453 167.786 122.76C168.986 122.04 170.359 121.68 171.906 121.68C174.306 121.68 176.186 122.427 177.546 123.92C178.932 125.413 179.626 127.64 179.626 130.6V142H175.426V131.04C175.426 127.2 173.852 125.28 170.706 125.28C169.132 125.28 167.826 125.84 166.786 126.96C165.772 128.08 165.266 129.68 165.266 131.76V142H161.026ZM191.739 142C189.793 142 188.246 141.533 187.099 140.6C185.953 139.64 185.379 137.947 185.379 135.52V125.72H181.979V122.16H185.379L185.899 117.12H189.619V122.16H195.219V125.72H189.619V135.52C189.619 136.613 189.846 137.373 190.299 137.8C190.779 138.2 191.593 138.4 192.739 138.4H195.019V142H191.739ZM206.311 142.48C203.805 142.48 201.738 141.867 200.111 140.64C198.485 139.413 197.551 137.787 197.311 135.76H201.591C201.805 136.667 202.311 137.453 203.111 138.12C203.911 138.76 204.965 139.08 206.271 139.08C207.551 139.08 208.485 138.813 209.071 138.28C209.658 137.747 209.951 137.133 209.951 136.44C209.951 135.427 209.538 134.747 208.711 134.4C207.911 134.027 206.791 133.693 205.351 133.4C204.231 133.16 203.111 132.84 201.991 132.44C200.898 132.04 199.978 131.48 199.231 130.76C198.511 130.013 198.151 129.013 198.151 127.76C198.151 126.027 198.818 124.587 200.151 123.44C201.485 122.267 203.351 121.68 205.751 121.68C207.965 121.68 209.751 122.213 211.111 123.28C212.498 124.347 213.311 125.853 213.551 127.8H209.471C209.338 126.947 208.938 126.28 208.271 125.8C207.631 125.32 206.765 125.08 205.671 125.08C204.605 125.08 203.778 125.307 203.191 125.76C202.605 126.187 202.311 126.747 202.311 127.44C202.311 128.133 202.711 128.68 203.511 129.08C204.338 129.48 205.418 129.84 206.751 130.16C208.085 130.453 209.311 130.8 210.431 131.2C211.578 131.573 212.498 132.133 213.191 132.88C213.885 133.627 214.231 134.72 214.231 136.16C214.258 137.973 213.551 139.48 212.111 140.68C210.698 141.88 208.765 142.48 206.311 142.48Z" fill="#1A191E"/>
<path d="M49.1042 183V169.909H51.0794V181.3H57.0112V183H49.1042ZM63.2466 183.198C62.3262 183.198 61.5229 182.987 60.8368 182.565C60.1507 182.143 59.6181 181.553 59.2388 180.795C58.8596 180.036 58.6699 179.15 58.6699 178.136C58.6699 177.117 58.8596 176.227 59.2388 175.464C59.6181 174.701 60.1507 174.109 60.8368 173.687C61.5229 173.265 62.3262 173.054 63.2466 173.054C64.1671 173.054 64.9703 173.265 65.6564 173.687C66.3425 174.109 66.8752 174.701 67.2544 175.464C67.6337 176.227 67.8233 177.117 67.8233 178.136C67.8233 179.15 67.6337 180.036 67.2544 180.795C66.8752 181.553 66.3425 182.143 65.6564 182.565C64.9703 182.987 64.1671 183.198 63.2466 183.198ZM63.253 181.594C63.8496 181.594 64.3439 181.436 64.736 181.121C65.128 180.805 65.4178 180.386 65.6053 179.862C65.7971 179.337 65.8929 178.76 65.8929 178.129C65.8929 177.503 65.7971 176.928 65.6053 176.403C65.4178 175.875 65.128 175.451 64.736 175.131C64.3439 174.812 63.8496 174.652 63.253 174.652C62.6522 174.652 62.1536 174.812 61.7573 175.131C61.3652 175.451 61.0733 175.875 60.8816 176.403C60.6941 176.928 60.6003 177.503 60.6003 178.129C60.6003 178.76 60.6941 179.337 60.8816 179.862C61.0733 180.386 61.3652 180.805 61.7573 181.121C62.1536 181.436 62.6522 181.594 63.253 181.594ZM69.9567 183V173.182H71.804V174.741H71.9062C72.0852 174.213 72.4006 173.798 72.8523 173.495C73.3082 173.188 73.8239 173.035 74.3991 173.035C74.5185 173.035 74.6591 173.039 74.821 173.048C74.9872 173.056 75.1172 173.067 75.2109 173.08V174.908C75.1342 174.886 74.9979 174.863 74.8018 174.837C74.6058 174.808 74.4098 174.793 74.2138 174.793C73.7621 174.793 73.3594 174.888 73.0057 175.08C72.6563 175.268 72.3793 175.53 72.1747 175.866C71.9702 176.199 71.8679 176.578 71.8679 177.004V183H69.9567ZM80.7449 183.198C79.7775 183.198 78.9444 182.991 78.2456 182.578C77.551 182.161 77.014 181.575 76.6348 180.82C76.2598 180.062 76.0723 179.173 76.0723 178.155C76.0723 177.149 76.2598 176.263 76.6348 175.496C77.014 174.729 77.5424 174.13 78.22 173.7C78.9018 173.269 79.6987 173.054 80.6106 173.054C81.1646 173.054 81.7015 173.146 82.2214 173.329C82.7413 173.512 83.2079 173.8 83.6213 174.192C84.0346 174.584 84.3606 175.093 84.5993 175.719C84.8379 176.342 84.9572 177.098 84.9572 177.989V178.666H77.1525V177.234H83.0843C83.0843 176.732 82.9821 176.286 82.7775 175.898C82.573 175.506 82.2853 175.197 81.9146 174.972C81.5481 174.746 81.1177 174.633 80.6234 174.633C80.0865 174.633 79.6177 174.765 79.2172 175.029C78.8208 175.289 78.514 175.63 78.2967 176.052C78.0836 176.469 77.9771 176.923 77.9771 177.413V178.532C77.9771 179.188 78.0922 179.746 78.3223 180.207C78.5566 180.667 78.8826 181.018 79.3002 181.261C79.7179 181.5 80.2058 181.619 80.764 181.619C81.1262 181.619 81.4565 181.568 81.7548 181.466C82.0531 181.359 82.3109 181.202 82.5282 180.993C82.7456 180.784 82.9118 180.526 83.0268 180.219L84.8358 180.545C84.6909 181.078 84.4309 181.545 84.0559 181.945C83.6852 182.342 83.2186 182.651 82.6561 182.872C82.0978 183.089 81.4608 183.198 80.7449 183.198ZM87.0778 183V173.182H88.9123V174.78H89.0337C89.2383 174.239 89.5728 173.817 90.0373 173.514C90.5018 173.207 91.0579 173.054 91.7056 173.054C92.3619 173.054 92.9116 173.207 93.3548 173.514C93.8022 173.821 94.1325 174.243 94.3455 174.78H94.4478C94.6822 174.256 95.055 173.838 95.5664 173.527C96.0778 173.212 96.6871 173.054 97.3945 173.054C98.2852 173.054 99.0117 173.333 99.5742 173.891C100.141 174.45 100.424 175.291 100.424 176.416V183H98.5131V176.595C98.5131 175.93 98.332 175.449 97.9698 175.151C97.6076 174.852 97.1751 174.703 96.6722 174.703C96.0501 174.703 95.5664 174.895 95.2212 175.278C94.8761 175.658 94.7035 176.146 94.7035 176.742V183H92.7987V176.474C92.7987 175.941 92.6325 175.513 92.3001 175.189C91.9677 174.865 91.5352 174.703 91.0025 174.703C90.6403 174.703 90.3058 174.799 89.9989 174.991C89.6964 175.178 89.4513 175.44 89.2638 175.777C89.0806 176.114 88.989 176.504 88.989 176.947V183H87.0778ZM107.75 183V173.182H109.661V183H107.75ZM108.715 171.667C108.382 171.667 108.097 171.556 107.858 171.335C107.624 171.109 107.507 170.84 107.507 170.529C107.507 170.214 107.624 169.945 107.858 169.724C108.097 169.498 108.382 169.385 108.715 169.385C109.047 169.385 109.331 169.498 109.565 169.724C109.804 169.945 109.923 170.214 109.923 170.529C109.923 170.84 109.804 171.109 109.565 171.335C109.331 171.556 109.047 171.667 108.715 171.667ZM112.232 186.682V173.182H114.099V174.773H114.258C114.369 174.569 114.529 174.332 114.738 174.064C114.947 173.795 115.236 173.561 115.607 173.361C115.978 173.156 116.468 173.054 117.077 173.054C117.87 173.054 118.577 173.254 119.199 173.655C119.822 174.055 120.309 174.633 120.663 175.387C121.021 176.141 121.2 177.049 121.2 178.11C121.2 179.171 121.023 180.081 120.67 180.839C120.316 181.594 119.83 182.175 119.212 182.585C118.594 182.989 117.889 183.192 117.096 183.192C116.5 183.192 116.012 183.092 115.633 182.891C115.258 182.691 114.964 182.457 114.751 182.188C114.537 181.92 114.373 181.681 114.258 181.472H114.143V186.682H112.232ZM114.105 178.091C114.105 178.781 114.205 179.386 114.405 179.906C114.606 180.426 114.895 180.833 115.275 181.127C115.654 181.417 116.118 181.562 116.668 181.562C117.239 181.562 117.716 181.411 118.1 181.108C118.483 180.801 118.773 180.386 118.969 179.862C119.17 179.337 119.27 178.747 119.27 178.091C119.27 177.443 119.172 176.862 118.976 176.346C118.784 175.83 118.494 175.423 118.106 175.125C117.723 174.827 117.243 174.678 116.668 174.678C116.114 174.678 115.645 174.82 115.262 175.106C114.883 175.391 114.595 175.79 114.399 176.301C114.203 176.812 114.105 177.409 114.105 178.091ZM130.699 175.579L128.966 175.886C128.894 175.664 128.779 175.453 128.621 175.253C128.468 175.053 128.259 174.888 127.995 174.761C127.731 174.633 127.4 174.569 127.004 174.569C126.463 174.569 126.011 174.69 125.649 174.933C125.287 175.172 125.106 175.481 125.106 175.86C125.106 176.188 125.227 176.452 125.47 176.653C125.713 176.853 126.105 177.017 126.646 177.145L128.206 177.503C129.109 177.712 129.782 178.033 130.226 178.468C130.669 178.903 130.89 179.467 130.89 180.162C130.89 180.75 130.72 181.274 130.379 181.734C130.042 182.19 129.572 182.548 128.966 182.808C128.366 183.068 127.669 183.198 126.876 183.198C125.777 183.198 124.88 182.964 124.185 182.495C123.491 182.022 123.064 181.351 122.907 180.482L124.754 180.2C124.869 180.682 125.106 181.046 125.464 181.293C125.822 181.536 126.288 181.658 126.863 181.658C127.49 181.658 127.991 181.528 128.366 181.268C128.741 181.004 128.928 180.682 128.928 180.303C128.928 179.996 128.813 179.738 128.583 179.529C128.357 179.32 128.01 179.163 127.541 179.056L125.879 178.692C124.963 178.483 124.285 178.151 123.846 177.695C123.412 177.239 123.194 176.661 123.194 175.962C123.194 175.383 123.356 174.876 123.68 174.441C124.004 174.006 124.452 173.668 125.023 173.425C125.594 173.178 126.248 173.054 126.985 173.054C128.046 173.054 128.881 173.284 129.491 173.744C130.1 174.2 130.503 174.812 130.699 175.579ZM139.211 178.928V173.182H141.129V183H139.25V181.3H139.147C138.922 181.824 138.559 182.261 138.061 182.61C137.566 182.955 136.951 183.128 136.213 183.128C135.583 183.128 135.025 182.989 134.539 182.712C134.057 182.431 133.678 182.016 133.401 181.466C133.128 180.916 132.992 180.237 132.992 179.427V173.182H134.903V179.197C134.903 179.866 135.088 180.398 135.459 180.795C135.83 181.191 136.311 181.389 136.904 181.389C137.262 181.389 137.618 181.3 137.971 181.121C138.329 180.942 138.625 180.671 138.86 180.309C139.098 179.947 139.216 179.487 139.211 178.928ZM143.697 183V173.182H145.531V174.78H145.653C145.857 174.239 146.192 173.817 146.656 173.514C147.121 173.207 147.677 173.054 148.325 173.054C148.981 173.054 149.531 173.207 149.974 173.514C150.421 173.821 150.752 174.243 150.965 174.78H151.067C151.301 174.256 151.674 173.838 152.186 173.527C152.697 173.212 153.306 173.054 154.014 173.054C154.904 173.054 155.631 173.333 156.193 173.891C156.76 174.45 157.044 175.291 157.044 176.416V183H155.132V176.595C155.132 175.93 154.951 175.449 154.589 175.151C154.227 174.852 153.794 174.703 153.291 174.703C152.669 174.703 152.186 174.895 151.84 175.278C151.495 175.658 151.323 176.146 151.323 176.742V183H149.418V176.474C149.418 175.941 149.252 175.513 148.919 175.189C148.587 174.865 148.154 174.703 147.622 174.703C147.259 174.703 146.925 174.799 146.618 174.991C146.316 175.178 146.07 175.44 145.883 175.777C145.7 176.114 145.608 176.504 145.608 176.947V183H143.697ZM168.044 183.192C167.252 183.192 166.544 182.989 165.922 182.585C165.304 182.175 164.818 181.594 164.465 180.839C164.115 180.081 163.941 179.171 163.941 178.11C163.941 177.049 164.117 176.141 164.471 175.387C164.829 174.633 165.319 174.055 165.941 173.655C166.563 173.254 167.269 173.054 168.057 173.054C168.666 173.054 169.156 173.156 169.527 173.361C169.902 173.561 170.192 173.795 170.396 174.064C170.605 174.332 170.767 174.569 170.882 174.773H170.997V169.909H172.909V183H171.042V181.472H170.882C170.767 181.681 170.601 181.92 170.384 182.188C170.171 182.457 169.877 182.691 169.502 182.891C169.127 183.092 168.641 183.192 168.044 183.192ZM168.466 181.562C169.016 181.562 169.48 181.417 169.86 181.127C170.243 180.833 170.533 180.426 170.729 179.906C170.929 179.386 171.029 178.781 171.029 178.091C171.029 177.409 170.931 176.812 170.735 176.301C170.539 175.79 170.252 175.391 169.872 175.106C169.493 174.82 169.024 174.678 168.466 174.678C167.891 174.678 167.411 174.827 167.028 175.125C166.644 175.423 166.355 175.83 166.159 176.346C165.967 176.862 165.871 177.443 165.871 178.091C165.871 178.747 165.969 179.337 166.165 179.862C166.361 180.386 166.651 180.801 167.034 181.108C167.422 181.411 167.899 181.562 168.466 181.562ZM179.772 183.198C178.852 183.198 178.048 182.987 177.362 182.565C176.676 182.143 176.143 181.553 175.764 180.795C175.385 180.036 175.195 179.15 175.195 178.136C175.195 177.117 175.385 176.227 175.764 175.464C176.143 174.701 176.676 174.109 177.362 173.687C178.048 173.265 178.852 173.054 179.772 173.054C180.692 173.054 181.496 173.265 182.182 173.687C182.868 174.109 183.401 174.701 183.78 175.464C184.159 176.227 184.349 177.117 184.349 178.136C184.349 179.15 184.159 180.036 183.78 180.795C183.401 181.553 182.868 182.143 182.182 182.565C181.496 182.987 180.692 183.198 179.772 183.198ZM179.778 181.594C180.375 181.594 180.869 181.436 181.261 181.121C181.653 180.805 181.943 180.386 182.131 179.862C182.322 179.337 182.418 178.76 182.418 178.129C182.418 177.503 182.322 176.928 182.131 176.403C181.943 175.875 181.653 175.451 181.261 175.131C180.869 174.812 180.375 174.652 179.778 174.652C179.178 174.652 178.679 174.812 178.283 175.131C177.891 175.451 177.599 175.875 177.407 176.403C177.219 176.928 177.126 177.503 177.126 178.129C177.126 178.76 177.219 179.337 177.407 179.862C177.599 180.386 177.891 180.805 178.283 181.121C178.679 181.436 179.178 181.594 179.778 181.594ZM188.393 169.909V183H186.482V169.909H188.393ZM195.1 183.198C194.18 183.198 193.376 182.987 192.69 182.565C192.004 182.143 191.472 181.553 191.092 180.795C190.713 180.036 190.523 179.15 190.523 178.136C190.523 177.117 190.713 176.227 191.092 175.464C191.472 174.701 192.004 174.109 192.69 173.687C193.376 173.265 194.18 173.054 195.1 173.054C196.021 173.054 196.824 173.265 197.51 173.687C198.196 174.109 198.729 174.701 199.108 175.464C199.487 176.227 199.677 177.117 199.677 178.136C199.677 179.15 199.487 180.036 199.108 180.795C198.729 181.553 198.196 182.143 197.51 182.565C196.824 182.987 196.021 183.198 195.1 183.198ZM195.107 181.594C195.703 181.594 196.197 181.436 196.589 181.121C196.982 180.805 197.271 180.386 197.459 179.862C197.651 179.337 197.746 178.76 197.746 178.129C197.746 177.503 197.651 176.928 197.459 176.403C197.271 175.875 196.982 175.451 196.589 175.131C196.197 174.812 195.703 174.652 195.107 174.652C194.506 174.652 194.007 174.812 193.611 175.131C193.219 175.451 192.927 175.875 192.735 176.403C192.548 176.928 192.454 177.503 192.454 178.129C192.454 178.76 192.548 179.337 192.735 179.862C192.927 180.386 193.219 180.805 193.611 181.121C194.007 181.436 194.506 181.594 195.107 181.594ZM201.81 183V173.182H203.657V174.741H203.76C203.939 174.213 204.254 173.798 204.706 173.495C205.162 173.188 205.677 173.035 206.253 173.035C206.372 173.035 206.513 173.039 206.675 173.048C206.841 173.056 206.971 173.067 207.064 173.08V174.908C206.988 174.886 206.851 174.863 206.655 174.837C206.459 174.808 206.263 174.793 206.067 174.793C205.616 174.793 205.213 174.888 204.859 175.08C204.51 175.268 204.233 175.53 204.028 175.866C203.824 176.199 203.721 176.578 203.721 177.004V183H201.81ZM220.839 175.579L219.107 175.886C219.035 175.664 218.92 175.453 218.762 175.253C218.608 175.053 218.4 174.888 218.135 174.761C217.871 174.633 217.541 174.569 217.145 174.569C216.604 174.569 216.152 174.69 215.79 174.933C215.427 175.172 215.246 175.481 215.246 175.86C215.246 176.188 215.368 176.452 215.611 176.653C215.854 176.853 216.246 177.017 216.787 177.145L218.346 177.503C219.25 177.712 219.923 178.033 220.366 178.468C220.809 178.903 221.031 179.467 221.031 180.162C221.031 180.75 220.861 181.274 220.52 181.734C220.183 182.19 219.712 182.548 219.107 182.808C218.506 183.068 217.809 183.198 217.017 183.198C215.917 183.198 215.02 182.964 214.326 182.495C213.631 182.022 213.205 181.351 213.047 180.482L214.895 180.2C215.01 180.682 215.246 181.046 215.604 181.293C215.962 181.536 216.429 181.658 217.004 181.658C217.631 181.658 218.131 181.528 218.506 181.268C218.881 181.004 219.069 180.682 219.069 180.303C219.069 179.996 218.954 179.738 218.724 179.529C218.498 179.32 218.15 179.163 217.682 179.056L216.02 178.692C215.104 178.483 214.426 178.151 213.987 177.695C213.552 177.239 213.335 176.661 213.335 175.962C213.335 175.383 213.497 174.876 213.821 174.441C214.145 174.006 214.592 173.668 215.163 173.425C215.734 173.178 216.388 173.054 217.126 173.054C218.187 173.054 219.022 173.284 219.631 173.744C220.241 174.2 220.643 174.812 220.839 175.579ZM223.132 183V173.182H225.044V183H223.132ZM224.098 171.667C223.765 171.667 223.48 171.556 223.241 171.335C223.007 171.109 222.89 170.84 222.89 170.529C222.89 170.214 223.007 169.945 223.241 169.724C223.48 169.498 223.765 169.385 224.098 169.385C224.43 169.385 224.713 169.498 224.948 169.724C225.186 169.945 225.306 170.214 225.306 170.529C225.306 170.84 225.186 171.109 224.948 171.335C224.713 171.556 224.43 171.667 224.098 171.667ZM232.198 173.182V174.716H226.835V173.182H232.198ZM228.273 170.83H230.184V180.117C230.184 180.488 230.24 180.767 230.351 180.955C230.461 181.138 230.604 181.263 230.779 181.332C230.958 181.396 231.152 181.428 231.361 181.428C231.514 181.428 231.648 181.417 231.763 181.396C231.878 181.374 231.968 181.357 232.032 181.344L232.377 182.923C232.266 182.966 232.108 183.009 231.904 183.051C231.699 183.098 231.444 183.124 231.137 183.128C230.634 183.136 230.165 183.047 229.731 182.859C229.296 182.672 228.944 182.382 228.676 181.99C228.407 181.598 228.273 181.106 228.273 180.513V170.83ZM241.933 183.217C241.311 183.217 240.748 183.102 240.246 182.872C239.743 182.638 239.344 182.299 239.05 181.856C238.76 181.413 238.616 180.869 238.616 180.226C238.616 179.672 238.722 179.216 238.935 178.858C239.148 178.5 239.436 178.217 239.798 178.008C240.16 177.799 240.565 177.641 241.013 177.535C241.46 177.428 241.916 177.347 242.381 177.292C242.969 177.224 243.446 177.168 243.812 177.126C244.179 177.079 244.445 177.004 244.611 176.902C244.778 176.8 244.861 176.634 244.861 176.403V176.359C244.861 175.8 244.703 175.368 244.388 175.061C244.077 174.754 243.612 174.601 242.994 174.601C242.351 174.601 241.844 174.744 241.473 175.029C241.106 175.31 240.853 175.624 240.712 175.969L238.916 175.56C239.129 174.963 239.44 174.482 239.849 174.115C240.263 173.744 240.738 173.476 241.275 173.31C241.812 173.139 242.376 173.054 242.969 173.054C243.361 173.054 243.776 173.101 244.215 173.195C244.658 173.284 245.072 173.45 245.455 173.693C245.843 173.936 246.16 174.283 246.407 174.735C246.655 175.183 246.778 175.764 246.778 176.48V183H244.912V181.658H244.835C244.711 181.905 244.526 182.148 244.279 182.386C244.032 182.625 243.714 182.823 243.327 182.981C242.939 183.138 242.474 183.217 241.933 183.217ZM242.349 181.683C242.877 181.683 243.329 181.579 243.704 181.37C244.083 181.161 244.371 180.888 244.567 180.552C244.767 180.211 244.867 179.847 244.867 179.459V178.193C244.799 178.261 244.667 178.325 244.471 178.385C244.279 178.44 244.059 178.489 243.812 178.532C243.565 178.57 243.324 178.607 243.09 178.641C242.856 178.67 242.66 178.696 242.502 178.717C242.131 178.764 241.792 178.843 241.486 178.954C241.183 179.065 240.94 179.224 240.757 179.433C240.578 179.638 240.488 179.911 240.488 180.251C240.488 180.724 240.663 181.082 241.013 181.325C241.362 181.564 241.807 181.683 242.349 181.683ZM249.324 183V173.182H251.158V174.78H251.28C251.484 174.239 251.819 173.817 252.283 173.514C252.748 173.207 253.304 173.054 253.952 173.054C254.608 173.054 255.158 173.207 255.601 173.514C256.048 173.821 256.379 174.243 256.592 174.78H256.694C256.928 174.256 257.301 173.838 257.812 173.527C258.324 173.212 258.933 173.054 259.641 173.054C260.531 173.054 261.258 173.333 261.82 173.891C262.387 174.45 262.67 175.291 262.67 176.416V183H260.759V176.595C260.759 175.93 260.578 175.449 260.216 175.151C259.854 174.852 259.421 174.703 258.918 174.703C258.296 174.703 257.812 174.895 257.467 175.278C257.122 175.658 256.95 176.146 256.95 176.742V183H255.045V176.474C255.045 175.941 254.879 175.513 254.546 175.189C254.214 174.865 253.781 174.703 253.249 174.703C252.886 174.703 252.552 174.799 252.245 174.991C251.942 175.178 251.697 175.44 251.51 175.777C251.327 176.114 251.235 176.504 251.235 176.947V183H249.324ZM269.464 183.198C268.496 183.198 267.663 182.991 266.964 182.578C266.27 182.161 265.733 181.575 265.354 180.82C264.979 180.062 264.791 179.173 264.791 178.155C264.791 177.149 264.979 176.263 265.354 175.496C265.733 174.729 266.261 174.13 266.939 173.7C267.621 173.269 268.417 173.054 269.329 173.054C269.883 173.054 270.42 173.146 270.94 173.329C271.46 173.512 271.927 173.8 272.34 174.192C272.753 174.584 273.079 175.093 273.318 175.719C273.557 176.342 273.676 177.098 273.676 177.989V178.666H265.871V177.234H271.803C271.803 176.732 271.701 176.286 271.496 175.898C271.292 175.506 271.004 175.197 270.633 174.972C270.267 174.746 269.836 174.633 269.342 174.633C268.805 174.633 268.336 174.765 267.936 175.029C267.54 175.289 267.233 175.63 267.015 176.052C266.802 176.469 266.696 176.923 266.696 177.413V178.532C266.696 179.188 266.811 179.746 267.041 180.207C267.275 180.667 267.601 181.018 268.019 181.261C268.437 181.5 268.925 181.619 269.483 181.619C269.845 181.619 270.175 181.568 270.474 181.466C270.772 181.359 271.03 181.202 271.247 180.993C271.464 180.784 271.631 180.526 271.746 180.219L273.555 180.545C273.41 181.078 273.15 181.545 272.775 181.945C272.404 182.342 271.937 182.651 271.375 182.872C270.817 183.089 270.18 183.198 269.464 183.198ZM280.38 173.182V174.716H275.017V173.182H280.38ZM276.455 170.83H278.366V180.117C278.366 180.488 278.422 180.767 278.532 180.955C278.643 181.138 278.786 181.263 278.961 181.332C279.14 181.396 279.333 181.428 279.542 181.428C279.696 181.428 279.83 181.417 279.945 181.396C280.06 181.374 280.15 181.357 280.213 181.344L280.559 182.923C280.448 182.966 280.29 183.009 280.086 183.051C279.881 183.098 279.625 183.124 279.319 183.128C278.816 183.136 278.347 183.047 277.912 182.859C277.478 182.672 277.126 182.382 276.858 181.99C276.589 181.598 276.455 181.106 276.455 180.513V170.83ZM284.98 181.21L284.884 181.907C284.82 182.418 284.712 182.951 284.558 183.505C284.409 184.063 284.254 184.581 284.092 185.058C283.934 185.536 283.804 185.915 283.702 186.196H282.347C282.402 185.932 282.479 185.574 282.577 185.122C282.675 184.675 282.771 184.174 282.865 183.62C282.958 183.066 283.029 182.501 283.075 181.926L283.139 181.21H284.98ZM53.0865 215.198C52.1362 215.198 51.318 214.983 50.6319 214.553C49.9501 214.118 49.426 213.519 49.0595 212.756C48.693 211.994 48.5098 211.12 48.5098 210.136C48.5098 209.138 48.6973 208.259 49.0723 207.496C49.4473 206.729 49.9757 206.13 50.6575 205.7C51.3393 205.269 52.1426 205.054 53.0673 205.054C53.813 205.054 54.4778 205.192 55.0616 205.469C55.6454 205.742 56.1163 206.126 56.4743 206.62C56.8365 207.114 57.0517 207.692 57.1199 208.352H55.2598C55.1575 207.892 54.9231 207.496 54.5566 207.163C54.1944 206.831 53.7086 206.665 53.0993 206.665C52.5666 206.665 52.1 206.805 51.6994 207.087C51.3031 207.364 50.9941 207.76 50.7725 208.276C50.551 208.787 50.4402 209.392 50.4402 210.091C50.4402 210.807 50.5488 211.425 50.7662 211.945C50.9835 212.464 51.2903 212.867 51.6866 213.153C52.0872 213.438 52.5581 213.581 53.0993 213.581C53.4615 213.581 53.7896 213.515 54.0836 213.383C54.3819 213.246 54.6312 213.053 54.8315 212.801C55.036 212.55 55.1788 212.247 55.2598 211.893H57.1199C57.0517 212.528 56.845 213.095 56.4998 213.594C56.1547 214.092 55.6923 214.484 55.1127 214.77C54.5375 215.055 53.862 215.198 53.0865 215.198ZM63.2994 215.198C62.3789 215.198 61.5756 214.987 60.8896 214.565C60.2035 214.143 59.6708 213.553 59.2915 212.795C58.9123 212.036 58.7227 211.15 58.7227 210.136C58.7227 209.117 58.9123 208.227 59.2915 207.464C59.6708 206.701 60.2035 206.109 60.8896 205.687C61.5756 205.265 62.3789 205.054 63.2994 205.054C64.2198 205.054 65.0231 205.265 65.7092 205.687C66.3952 206.109 66.9279 206.701 67.3072 207.464C67.6864 208.227 67.8761 209.117 67.8761 210.136C67.8761 211.15 67.6864 212.036 67.3072 212.795C66.9279 213.553 66.3952 214.143 65.7092 214.565C65.0231 214.987 64.2198 215.198 63.2994 215.198ZM63.3058 213.594C63.9023 213.594 64.3967 213.436 64.7887 213.121C65.1808 212.805 65.4705 212.386 65.658 211.862C65.8498 211.337 65.9457 210.76 65.9457 210.129C65.9457 209.503 65.8498 208.928 65.658 208.403C65.4705 207.875 65.1808 207.451 64.7887 207.131C64.3967 206.812 63.9023 206.652 63.3058 206.652C62.7049 206.652 62.2063 206.812 61.81 207.131C61.418 207.451 61.1261 207.875 60.9343 208.403C60.7468 208.928 60.6531 209.503 60.6531 210.129C60.6531 210.76 60.7468 211.337 60.9343 211.862C61.1261 212.386 61.418 212.805 61.81 213.121C62.2063 213.436 62.7049 213.594 63.3058 213.594ZM71.9206 209.17V215H70.0094V205.182H71.8439V206.78H71.9654C72.1912 206.26 72.5449 205.842 73.0265 205.527C73.5123 205.212 74.1238 205.054 74.861 205.054C75.53 205.054 76.1159 205.195 76.6188 205.476C77.1216 205.753 77.5115 206.166 77.7885 206.716C78.0655 207.266 78.204 207.945 78.204 208.755V215H76.2928V208.985C76.2928 208.273 76.1074 207.717 75.7367 207.317C75.3659 206.912 74.8567 206.71 74.209 206.71C73.7658 206.71 73.3716 206.805 73.0265 206.997C72.6855 207.189 72.415 207.47 72.2147 207.841C72.0186 208.207 71.9206 208.651 71.9206 209.17ZM88.1245 207.579L86.3922 207.886C86.3198 207.664 86.2047 207.453 86.0471 207.253C85.8936 207.053 85.6848 206.888 85.4206 206.761C85.1564 206.633 84.8262 206.569 84.4299 206.569C83.8887 206.569 83.437 206.69 83.0748 206.933C82.7125 207.172 82.5314 207.481 82.5314 207.86C82.5314 208.188 82.6529 208.452 82.8958 208.653C83.1387 208.853 83.5307 209.017 84.0719 209.145L85.6316 209.503C86.535 209.712 87.2083 210.033 87.6515 210.468C88.0946 210.903 88.3162 211.467 88.3162 212.162C88.3162 212.75 88.1458 213.274 87.8049 213.734C87.4682 214.19 86.9973 214.548 86.3922 214.808C85.7914 215.068 85.0946 215.198 84.302 215.198C83.2026 215.198 82.3056 214.964 81.611 214.495C80.9164 214.022 80.4902 213.351 80.3326 212.482L82.1799 212.2C82.2949 212.682 82.5314 213.046 82.8894 213.293C83.2473 213.536 83.714 213.658 84.2892 213.658C84.9157 213.658 85.4164 213.528 85.7914 213.268C86.1664 213.004 86.3539 212.682 86.3539 212.303C86.3539 211.996 86.2388 211.738 86.0087 211.529C85.7828 211.32 85.4355 211.163 84.9668 211.056L83.3049 210.692C82.3887 210.483 81.7111 210.151 81.2722 209.695C80.8375 209.239 80.6202 208.661 80.6202 207.962C80.6202 207.383 80.7821 206.876 81.106 206.441C81.4299 206.006 81.8773 205.668 82.4483 205.425C83.0194 205.178 83.6735 205.054 84.4107 205.054C85.4718 205.054 86.307 205.284 86.9164 205.744C87.5257 206.2 87.9284 206.812 88.1245 207.579ZM94.6491 215.198C93.6818 215.198 92.8487 214.991 92.1499 214.578C91.4553 214.161 90.9183 213.575 90.5391 212.82C90.1641 212.062 89.9766 211.173 89.9766 210.155C89.9766 209.149 90.1641 208.263 90.5391 207.496C90.9183 206.729 91.4467 206.13 92.1243 205.7C92.8061 205.269 93.603 205.054 94.5149 205.054C95.0689 205.054 95.6058 205.146 96.1257 205.329C96.6456 205.512 97.1122 205.8 97.5256 206.192C97.9389 206.584 98.2649 207.093 98.5036 207.719C98.7422 208.342 98.8615 209.098 98.8615 209.989V210.666H91.0568V209.234H96.9886C96.9886 208.732 96.8864 208.286 96.6818 207.898C96.4773 207.506 96.1896 207.197 95.8189 206.972C95.4524 206.746 95.022 206.633 94.5277 206.633C93.9908 206.633 93.522 206.765 93.1214 207.029C92.7251 207.289 92.4183 207.63 92.201 208.052C91.9879 208.469 91.8814 208.923 91.8814 209.413V210.532C91.8814 211.188 91.9964 211.746 92.2266 212.207C92.4609 212.667 92.7869 213.018 93.2045 213.261C93.6222 213.5 94.1101 213.619 94.6683 213.619C95.0305 213.619 95.3608 213.568 95.6591 213.466C95.9574 213.359 96.2152 213.202 96.4325 212.993C96.6499 212.784 96.8161 212.526 96.9311 212.219L98.7401 212.545C98.5952 213.078 98.3352 213.545 97.9602 213.945C97.5895 214.342 97.1229 214.651 96.5604 214.872C96.0021 215.089 95.3651 215.198 94.6491 215.198ZM105.118 215.198C104.167 215.198 103.349 214.983 102.663 214.553C101.981 214.118 101.457 213.519 101.091 212.756C100.724 211.994 100.541 211.12 100.541 210.136C100.541 209.138 100.729 208.259 101.104 207.496C101.479 206.729 102.007 206.13 102.689 205.7C103.371 205.269 104.174 205.054 105.099 205.054C105.844 205.054 106.509 205.192 107.093 205.469C107.677 205.742 108.148 206.126 108.506 206.62C108.868 207.114 109.083 207.692 109.151 208.352H107.291C107.189 207.892 106.954 207.496 106.588 207.163C106.226 206.831 105.74 206.665 105.131 206.665C104.598 206.665 104.131 206.805 103.731 207.087C103.334 207.364 103.025 207.76 102.804 208.276C102.582 208.787 102.471 209.392 102.471 210.091C102.471 210.807 102.58 211.425 102.797 211.945C103.015 212.464 103.322 212.867 103.718 213.153C104.118 213.438 104.589 213.581 105.131 213.581C105.493 213.581 105.821 213.515 106.115 213.383C106.413 213.246 106.662 213.053 106.863 212.801C107.067 212.55 107.21 212.247 107.291 211.893H109.151C109.083 212.528 108.876 213.095 108.531 213.594C108.186 214.092 107.724 214.484 107.144 214.77C106.569 215.055 105.893 215.198 105.118 215.198ZM115.778 205.182V206.716H110.415V205.182H115.778ZM111.853 202.83H113.765V212.117C113.765 212.488 113.82 212.767 113.931 212.955C114.042 213.138 114.184 213.263 114.359 213.332C114.538 213.396 114.732 213.428 114.941 213.428C115.094 213.428 115.228 213.417 115.343 213.396C115.458 213.374 115.548 213.357 115.612 213.344L115.957 214.923C115.846 214.966 115.689 215.009 115.484 215.051C115.279 215.098 115.024 215.124 114.717 215.128C114.214 215.136 113.745 215.047 113.311 214.859C112.876 214.672 112.525 214.382 112.256 213.99C111.988 213.598 111.853 213.106 111.853 212.513V202.83ZM122.018 215.198C121.051 215.198 120.218 214.991 119.519 214.578C118.824 214.161 118.287 213.575 117.908 212.82C117.533 212.062 117.346 211.173 117.346 210.155C117.346 209.149 117.533 208.263 117.908 207.496C118.287 206.729 118.816 206.13 119.493 205.7C120.175 205.269 120.972 205.054 121.884 205.054C122.438 205.054 122.975 205.146 123.495 205.329C124.015 205.512 124.481 205.8 124.895 206.192C125.308 206.584 125.634 207.093 125.873 207.719C126.111 208.342 126.231 209.098 126.231 209.989V210.666H118.426V209.234H124.358C124.358 208.732 124.256 208.286 124.051 207.898C123.846 207.506 123.559 207.197 123.188 206.972C122.822 206.746 122.391 206.633 121.897 206.633C121.36 206.633 120.891 206.765 120.491 207.029C120.094 207.289 119.787 207.63 119.57 208.052C119.357 208.469 119.251 208.923 119.251 209.413V210.532C119.251 211.188 119.366 211.746 119.596 212.207C119.83 212.667 120.156 213.018 120.574 213.261C120.991 213.5 121.479 213.619 122.037 213.619C122.4 213.619 122.73 213.568 123.028 213.466C123.327 213.359 123.584 213.202 123.802 212.993C124.019 212.784 124.185 212.526 124.3 212.219L126.109 212.545C125.964 213.078 125.704 213.545 125.329 213.945C124.959 214.342 124.492 214.651 123.93 214.872C123.371 215.089 122.734 215.198 122.018 215.198ZM132.934 205.182V206.716H127.571V205.182H132.934ZM129.01 202.83H130.921V212.117C130.921 212.488 130.976 212.767 131.087 212.955C131.198 213.138 131.341 213.263 131.515 213.332C131.694 213.396 131.888 213.428 132.097 213.428C132.25 213.428 132.385 213.417 132.5 213.396C132.615 213.374 132.704 213.357 132.768 213.344L133.113 214.923C133.002 214.966 132.845 215.009 132.64 215.051C132.436 215.098 132.18 215.124 131.873 215.128C131.37 215.136 130.902 215.047 130.467 214.859C130.032 214.672 129.681 214.382 129.412 213.99C129.144 213.598 129.01 213.106 129.01 212.513V202.83ZM141.268 210.928V205.182H143.186V215H141.306V213.3H141.204C140.978 213.824 140.616 214.261 140.117 214.61C139.623 214.955 139.007 215.128 138.27 215.128C137.639 215.128 137.081 214.989 136.595 214.712C136.114 214.431 135.735 214.016 135.458 213.466C135.185 212.916 135.048 212.237 135.048 211.427V205.182H136.96V211.197C136.96 211.866 137.145 212.398 137.516 212.795C137.887 213.191 138.368 213.389 138.96 213.389C139.318 213.389 139.674 213.3 140.028 213.121C140.386 212.942 140.682 212.671 140.916 212.309C141.155 211.947 141.272 211.487 141.268 210.928ZM145.754 215V205.182H147.601V206.741H147.703C147.882 206.213 148.197 205.798 148.649 205.495C149.105 205.188 149.621 205.035 150.196 205.035C150.315 205.035 150.456 205.039 150.618 205.048C150.784 205.056 150.914 205.067 151.008 205.08V206.908C150.931 206.886 150.795 206.863 150.599 206.837C150.403 206.808 150.207 206.793 150.011 206.793C149.559 206.793 149.156 206.888 148.803 207.08C148.453 207.268 148.176 207.53 147.972 207.866C147.767 208.199 147.665 208.578 147.665 209.004V215H145.754ZM160.283 215.217C159.661 215.217 159.098 215.102 158.595 214.872C158.092 214.638 157.694 214.299 157.4 213.856C157.11 213.413 156.965 212.869 156.965 212.226C156.965 211.672 157.072 211.216 157.285 210.858C157.498 210.5 157.786 210.217 158.148 210.008C158.51 209.799 158.915 209.641 159.362 209.535C159.81 209.428 160.266 209.347 160.73 209.292C161.318 209.224 161.795 209.168 162.162 209.126C162.528 209.079 162.795 209.004 162.961 208.902C163.127 208.8 163.21 208.634 163.21 208.403V208.359C163.21 207.8 163.053 207.368 162.737 207.061C162.426 206.754 161.962 206.601 161.344 206.601C160.7 206.601 160.193 206.744 159.822 207.029C159.456 207.31 159.202 207.624 159.062 207.969L157.266 207.56C157.479 206.963 157.79 206.482 158.199 206.115C158.612 205.744 159.087 205.476 159.624 205.31C160.161 205.139 160.726 205.054 161.318 205.054C161.71 205.054 162.126 205.101 162.565 205.195C163.008 205.284 163.421 205.45 163.805 205.693C164.192 205.936 164.51 206.283 164.757 206.735C165.004 207.183 165.128 207.764 165.128 208.48V215H163.261V213.658H163.185C163.061 213.905 162.876 214.148 162.629 214.386C162.381 214.625 162.064 214.823 161.676 214.981C161.288 215.138 160.824 215.217 160.283 215.217ZM160.698 213.683C161.227 213.683 161.678 213.579 162.053 213.37C162.433 213.161 162.72 212.888 162.916 212.552C163.116 212.211 163.217 211.847 163.217 211.459V210.193C163.148 210.261 163.016 210.325 162.82 210.385C162.629 210.44 162.409 210.489 162.162 210.532C161.915 210.57 161.674 210.607 161.44 210.641C161.205 210.67 161.009 210.696 160.852 210.717C160.481 210.764 160.142 210.843 159.835 210.954C159.533 211.065 159.29 211.224 159.107 211.433C158.928 211.638 158.838 211.911 158.838 212.251C158.838 212.724 159.013 213.082 159.362 213.325C159.712 213.564 160.157 213.683 160.698 213.683ZM171.349 215.192C170.556 215.192 169.849 214.989 169.227 214.585C168.609 214.175 168.123 213.594 167.769 212.839C167.42 212.081 167.245 211.171 167.245 210.11C167.245 209.049 167.422 208.141 167.776 207.387C168.134 206.633 168.624 206.055 169.246 205.655C169.868 205.254 170.573 205.054 171.362 205.054C171.971 205.054 172.461 205.156 172.832 205.361C173.207 205.561 173.497 205.795 173.701 206.064C173.91 206.332 174.072 206.569 174.187 206.773H174.302V201.909H176.213V215H174.347V213.472H174.187C174.072 213.681 173.906 213.92 173.688 214.188C173.475 214.457 173.181 214.691 172.806 214.891C172.431 215.092 171.945 215.192 171.349 215.192ZM171.771 213.562C172.32 213.562 172.785 213.417 173.164 213.127C173.548 212.833 173.838 212.426 174.034 211.906C174.234 211.386 174.334 210.781 174.334 210.091C174.334 209.409 174.236 208.812 174.04 208.301C173.844 207.79 173.556 207.391 173.177 207.106C172.798 206.82 172.329 206.678 171.771 206.678C171.195 206.678 170.716 206.827 170.333 207.125C169.949 207.423 169.659 207.83 169.463 208.346C169.271 208.862 169.176 209.443 169.176 210.091C169.176 210.747 169.274 211.337 169.47 211.862C169.666 212.386 169.955 212.801 170.339 213.108C170.727 213.411 171.204 213.562 171.771 213.562ZM178.941 215V205.182H180.852V215H178.941ZM179.906 203.667C179.574 203.667 179.288 203.556 179.05 203.335C178.815 203.109 178.698 202.84 178.698 202.529C178.698 202.214 178.815 201.945 179.05 201.724C179.288 201.498 179.574 201.385 179.906 201.385C180.239 201.385 180.522 201.498 180.756 201.724C180.995 201.945 181.114 202.214 181.114 202.529C181.114 202.84 180.995 203.109 180.756 203.335C180.522 203.556 180.239 203.667 179.906 203.667ZM183.423 218.682V205.182H185.29V206.773H185.45C185.561 206.569 185.72 206.332 185.929 206.064C186.138 205.795 186.428 205.561 186.798 205.361C187.169 205.156 187.659 205.054 188.269 205.054C189.061 205.054 189.769 205.254 190.391 205.655C191.013 206.055 191.501 206.633 191.855 207.387C192.213 208.141 192.392 209.049 192.392 210.11C192.392 211.171 192.215 212.081 191.861 212.839C191.507 213.594 191.021 214.175 190.404 214.585C189.786 214.989 189.08 215.192 188.288 215.192C187.691 215.192 187.203 215.092 186.824 214.891C186.449 214.691 186.155 214.457 185.942 214.188C185.729 213.92 185.565 213.681 185.45 213.472H185.335V218.682H183.423ZM185.296 210.091C185.296 210.781 185.396 211.386 185.597 211.906C185.797 212.426 186.087 212.833 186.466 213.127C186.845 213.417 187.31 213.562 187.86 213.562C188.431 213.562 188.908 213.411 189.291 213.108C189.675 212.801 189.965 212.386 190.161 211.862C190.361 211.337 190.461 210.747 190.461 210.091C190.461 209.443 190.363 208.862 190.167 208.346C189.975 207.83 189.686 207.423 189.298 207.125C188.914 206.827 188.435 206.678 187.86 206.678C187.306 206.678 186.837 206.82 186.453 207.106C186.074 207.391 185.786 207.79 185.59 208.301C185.394 208.812 185.296 209.409 185.296 210.091ZM194.533 215V205.182H196.444V215H194.533ZM195.498 203.667C195.166 203.667 194.88 203.556 194.642 203.335C194.407 203.109 194.29 202.84 194.29 202.529C194.29 202.214 194.407 201.945 194.642 201.724C194.88 201.498 195.166 201.385 195.498 201.385C195.83 201.385 196.114 201.498 196.348 201.724C196.587 201.945 196.706 202.214 196.706 202.529C196.706 202.84 196.587 203.109 196.348 203.335C196.114 203.556 195.83 203.667 195.498 203.667ZM206.373 207.579L204.64 207.886C204.568 207.664 204.453 207.453 204.295 207.253C204.142 207.053 203.933 206.888 203.669 206.761C203.404 206.633 203.074 206.569 202.678 206.569C202.137 206.569 201.685 206.69 201.323 206.933C200.961 207.172 200.779 207.481 200.779 207.86C200.779 208.188 200.901 208.452 201.144 208.653C201.387 208.853 201.779 209.017 202.32 209.145L203.88 209.503C204.783 209.712 205.456 210.033 205.9 210.468C206.343 210.903 206.564 211.467 206.564 212.162C206.564 212.75 206.394 213.274 206.053 213.734C205.716 214.19 205.245 214.548 204.64 214.808C204.039 215.068 203.343 215.198 202.55 215.198C201.451 215.198 200.554 214.964 199.859 214.495C199.164 214.022 198.738 213.351 198.581 212.482L200.428 212.2C200.543 212.682 200.779 213.046 201.137 213.293C201.495 213.536 201.962 213.658 202.537 213.658C203.164 213.658 203.664 213.528 204.039 213.268C204.414 213.004 204.602 212.682 204.602 212.303C204.602 211.996 204.487 211.738 204.257 211.529C204.031 211.32 203.684 211.163 203.215 211.056L201.553 210.692C200.637 210.483 199.959 210.151 199.52 209.695C199.086 209.239 198.868 208.661 198.868 207.962C198.868 207.383 199.03 206.876 199.354 206.441C199.678 206.006 200.125 205.668 200.696 205.425C201.267 205.178 201.922 205.054 202.659 205.054C203.72 205.054 204.555 205.284 205.164 205.744C205.774 206.2 206.176 206.812 206.373 207.579ZM212.801 215.198C211.851 215.198 211.033 214.983 210.347 214.553C209.665 214.118 209.141 213.519 208.774 212.756C208.408 211.994 208.225 211.12 208.225 210.136C208.225 209.138 208.412 208.259 208.787 207.496C209.162 206.729 209.691 206.13 210.372 205.7C211.054 205.269 211.857 205.054 212.782 205.054C213.528 205.054 214.193 205.192 214.776 205.469C215.36 205.742 215.831 206.126 216.189 206.62C216.551 207.114 216.767 207.692 216.835 208.352H214.975C214.872 207.892 214.638 207.496 214.271 207.163C213.909 206.831 213.423 206.665 212.814 206.665C212.281 206.665 211.815 206.805 211.414 207.087C211.018 207.364 210.709 207.76 210.487 208.276C210.266 208.787 210.155 209.392 210.155 210.091C210.155 210.807 210.264 211.425 210.481 211.945C210.698 212.464 211.005 212.867 211.401 213.153C211.802 213.438 212.273 213.581 212.814 213.581C213.176 213.581 213.504 213.515 213.798 213.383C214.097 213.246 214.346 213.053 214.546 212.801C214.751 212.55 214.894 212.247 214.975 211.893H216.835C216.767 212.528 216.56 213.095 216.215 213.594C215.869 214.092 215.407 214.484 214.828 214.77C214.252 215.055 213.577 215.198 212.801 215.198ZM218.879 215V205.182H220.79V215H218.879ZM219.844 203.667C219.511 203.667 219.226 203.556 218.987 203.335C218.753 203.109 218.636 202.84 218.636 202.529C218.636 202.214 218.753 201.945 218.987 201.724C219.226 201.498 219.511 201.385 219.844 201.385C220.176 201.385 220.46 201.498 220.694 201.724C220.933 201.945 221.052 202.214 221.052 202.529C221.052 202.84 220.933 203.109 220.694 203.335C220.46 203.556 220.176 203.667 219.844 203.667ZM225.272 209.17V215H223.361V205.182H225.195V206.78H225.317C225.543 206.26 225.896 205.842 226.378 205.527C226.864 205.212 227.475 205.054 228.213 205.054C228.882 205.054 229.468 205.195 229.97 205.476C230.473 205.753 230.863 206.166 231.14 206.716C231.417 207.266 231.556 207.945 231.556 208.755V215H229.644V208.985C229.644 208.273 229.459 207.717 229.088 207.317C228.718 206.912 228.208 206.71 227.561 206.71C227.117 206.71 226.723 206.805 226.378 206.997C226.037 207.189 225.767 207.47 225.566 207.841C225.37 208.207 225.272 208.651 225.272 209.17ZM238.235 218.886C237.455 218.886 236.784 218.784 236.222 218.58C235.664 218.375 235.208 218.104 234.854 217.768C234.5 217.431 234.236 217.063 234.061 216.662L235.704 215.984C235.819 216.172 235.972 216.37 236.164 216.579C236.36 216.792 236.624 216.973 236.957 217.122C237.294 217.271 237.726 217.346 238.254 217.346C238.979 217.346 239.578 217.169 240.051 216.815C240.524 216.466 240.76 215.908 240.76 215.141V213.21H240.639C240.524 213.419 240.357 213.651 240.14 213.907C239.927 214.163 239.633 214.384 239.258 214.572C238.883 214.759 238.395 214.853 237.794 214.853C237.019 214.853 236.32 214.672 235.698 214.31C235.08 213.943 234.59 213.404 234.227 212.692C233.869 211.977 233.691 211.097 233.691 210.053C233.691 209.009 233.867 208.114 234.221 207.368C234.579 206.622 235.069 206.051 235.691 205.655C236.313 205.254 237.019 205.054 237.807 205.054C238.416 205.054 238.909 205.156 239.284 205.361C239.659 205.561 239.95 205.795 240.159 206.064C240.372 206.332 240.536 206.569 240.651 206.773H240.792V205.182H242.665V215.217C242.665 216.061 242.469 216.754 242.077 217.295C241.685 217.836 241.154 218.237 240.485 218.496C239.82 218.756 239.07 218.886 238.235 218.886ZM238.216 213.268C238.766 213.268 239.23 213.14 239.61 212.884C239.993 212.624 240.283 212.254 240.479 211.772C240.679 211.286 240.779 210.705 240.779 210.027C240.779 209.366 240.681 208.785 240.485 208.282C240.289 207.779 240.002 207.387 239.622 207.106C239.243 206.82 238.774 206.678 238.216 206.678C237.641 206.678 237.161 206.827 236.778 207.125C236.394 207.419 236.105 207.82 235.909 208.327C235.717 208.834 235.621 209.401 235.621 210.027C235.621 210.67 235.719 211.235 235.915 211.721C236.111 212.207 236.401 212.586 236.784 212.859C237.172 213.131 237.649 213.268 238.216 213.268ZM254.223 215.198C253.256 215.198 252.423 214.991 251.724 214.578C251.029 214.161 250.493 213.575 250.113 212.82C249.738 212.062 249.551 211.173 249.551 210.155C249.551 209.149 249.738 208.263 250.113 207.496C250.493 206.729 251.021 206.13 251.699 205.7C252.38 205.269 253.177 205.054 254.089 205.054C254.643 205.054 255.18 205.146 255.7 205.329C256.22 205.512 256.686 205.8 257.1 206.192C257.513 206.584 257.839 207.093 258.078 207.719C258.316 208.342 258.436 209.098 258.436 209.989V210.666H250.631V209.234H256.563C256.563 208.732 256.461 208.286 256.256 207.898C256.051 207.506 255.764 207.197 255.393 206.972C255.027 206.746 254.596 206.633 254.102 206.633C253.565 206.633 253.096 206.765 252.696 207.029C252.299 207.289 251.993 207.63 251.775 208.052C251.562 208.469 251.456 208.923 251.456 209.413V210.532C251.456 211.188 251.571 211.746 251.801 212.207C252.035 212.667 252.361 213.018 252.779 213.261C253.196 213.5 253.684 213.619 254.243 213.619C254.605 213.619 254.935 213.568 255.233 213.466C255.532 213.359 255.789 213.202 256.007 212.993C256.224 212.784 256.39 212.526 256.505 212.219L258.314 212.545C258.169 213.078 257.909 213.545 257.534 213.945C257.164 214.342 256.697 214.651 256.135 214.872C255.576 215.089 254.939 215.198 254.223 215.198ZM262.468 201.909V215H260.556V201.909H262.468ZM265.039 215V205.182H266.95V215H265.039ZM266.004 203.667C265.672 203.667 265.386 203.556 265.147 203.335C264.913 203.109 264.796 202.84 264.796 202.529C264.796 202.214 264.913 201.945 265.147 201.724C265.386 201.498 265.672 201.385 266.004 201.385C266.336 201.385 266.62 201.498 266.854 201.724C267.093 201.945 267.212 202.214 267.212 202.529C267.212 202.84 267.093 203.109 266.854 203.335C266.62 203.556 266.336 203.667 266.004 203.667ZM274.104 205.182V206.716H268.741V205.182H274.104ZM270.18 202.83H272.091V212.117C272.091 212.488 272.146 212.767 272.257 212.955C272.368 213.138 272.51 213.263 272.685 213.332C272.864 213.396 273.058 213.428 273.267 213.428C273.42 213.428 273.555 213.417 273.67 213.396C273.785 213.374 273.874 213.357 273.938 213.344L274.283 214.923C274.172 214.966 274.015 215.009 273.81 215.051C273.606 215.098 273.35 215.124 273.043 215.128C272.54 215.136 272.072 215.047 271.637 214.859C271.202 214.672 270.851 214.382 270.582 213.99C270.314 213.598 270.18 213.106 270.18 212.513V202.83ZM277.478 215.121C277.128 215.121 276.828 214.998 276.576 214.751C276.325 214.499 276.199 214.197 276.199 213.843C276.199 213.494 276.325 213.195 276.576 212.948C276.828 212.697 277.128 212.571 277.478 212.571C277.827 212.571 278.127 212.697 278.379 212.948C278.63 213.195 278.756 213.494 278.756 213.843C278.756 214.077 278.696 214.293 278.577 214.489C278.462 214.68 278.309 214.834 278.117 214.949C277.925 215.064 277.712 215.121 277.478 215.121Z" fill="#1A191E" fill-opacity="0.5"/>
<rect x="48" y="282" width="160" height="160" rx="16" fill="#E6EEF7"/>
<path d="M156.444 381.726C155.703 380.014 154.852 378.156 152.889 378.156H151.111C153.074 378.156 154.667 376.558 154.667 374.587V344.236C154.668 343.768 154.576 343.305 154.398 342.872C154.22 342.44 153.958 342.046 153.628 341.715C153.298 341.384 152.906 341.12 152.474 340.94C152.042 340.761 151.579 340.667 151.111 340.667H104.889C102.926 340.667 101.333 342.265 101.333 344.236V374.587C101.333 376.558 102.926 378.156 104.889 378.156H103.111C101.148 378.156 100.148 379.941 99.5556 381.726L96 390.428C96 392.402 97.5929 394 99.5556 394H156.444C158.407 394 160 392.402 160 390.43L156.444 381.726Z" fill="#CCD6DD"/>
<path d="M96.0137 390.578L96.0243 390.679L96.3266 391.909C96.6072 392.531 97.0608 393.059 97.6333 393.429C98.2058 393.8 98.873 393.998 99.555 394H156.444C157.362 393.997 158.243 393.639 158.903 393.001C159.563 392.363 159.951 391.495 159.985 390.578H96.0137Z" fill="#9AAAB4"/>
<path d="M151.111 372.8C151.111 373.787 150.316 374.585 149.333 374.585H106.666C105.685 374.585 104.889 373.787 104.889 372.8V346.023C104.889 345.037 105.685 344.238 106.666 344.238H149.333C150.316 344.238 151.111 345.038 151.111 346.023V372.8Z" fill="#5DADEC"/>
<path d="M154.5 385.186L153.149 381.319C152.724 380.501 152.02 379.831 151.037 379.831H105.085C104.103 379.831 103.474 380.556 103.03 381.673L101.806 385.187C101.417 386.247 102.603 386.972 103.584 386.972H117.056C117.056 386.972 118.722 386.889 119.017 385.891C119.358 384.739 119.755 383.004 119.84 382.699C119.972 382.229 120.53 381.755 121.362 381.755H136.612C137.501 381.755 137.938 382.204 138.054 382.761C138.128 383.123 138.608 384.789 138.832 385.929C139.03 386.944 141.003 386.971 141.003 386.971H152.726C153.705 386.971 154.889 386.133 154.5 385.186Z" fill="#AEBBC1"/>
<path d="M135.778 388.868H121.945C121.278 388.868 120.988 388.258 121.084 387.668C121.18 387.079 121.723 384.48 121.765 384.178C121.806 383.874 122.252 383.511 122.697 383.511H135.168C135.696 383.511 136.039 383.801 136.146 384.381C136.251 384.962 136.683 387.298 136.716 387.831C136.75 388.366 136.416 388.868 135.778 388.868Z" fill="#9AAAB4"/>
<path d="M49.278 469V456.4H51.186L57.504 465.886V456.4H59.412V469H57.504L51.186 459.514V469H49.278ZM65.5334 469.216C64.6574 469.216 63.8774 469.024 63.1934 468.64C62.5214 468.244 61.9934 467.698 61.6094 467.002C61.2254 466.306 61.0334 465.496 61.0334 464.572C61.0334 463.636 61.2194 462.814 61.5914 462.106C61.9754 461.398 62.5034 460.846 63.1754 460.45C63.8594 460.054 64.6514 459.856 65.5514 459.856C66.4274 459.856 67.1894 460.054 67.8374 460.45C68.4854 460.834 68.9894 461.35 69.3494 461.998C69.7094 462.646 69.8894 463.36 69.8894 464.14C69.8894 464.26 69.8834 464.392 69.8714 464.536C69.8714 464.668 69.8654 464.818 69.8534 464.986H62.9054C62.9654 465.85 63.2474 466.51 63.7514 466.966C64.2674 467.41 64.8614 467.632 65.5334 467.632C66.0734 467.632 66.5234 467.512 66.8834 467.272C67.2554 467.02 67.5314 466.684 67.7114 466.264H69.6194C69.3794 467.104 68.8994 467.806 68.1794 468.37C67.4714 468.934 66.5894 469.216 65.5334 469.216ZM65.5334 461.422C64.8974 461.422 64.3334 461.614 63.8414 461.998C63.3494 462.37 63.0494 462.934 62.9414 463.69H67.9814C67.9454 462.994 67.6994 462.442 67.2434 462.034C66.7874 461.626 66.2174 461.422 65.5334 461.422ZM72.7596 469L70.1316 460.072H72.0396L73.7676 466.804L75.7116 460.072H77.8356L79.7796 466.804L81.5076 460.072H83.4156L80.7876 469H78.8256L76.7736 461.98L74.7216 469H72.7596ZM88.5145 469V456.4H90.4225V467.488H96.1465V469H88.5145ZM100.612 469.216C99.856 469.216 99.232 469.09 98.74 468.838C98.248 468.586 97.882 468.256 97.642 467.848C97.402 467.428 97.282 466.972 97.282 466.48C97.282 465.616 97.618 464.932 98.29 464.428C98.962 463.924 99.922 463.672 101.17 463.672H103.51V463.51C103.51 462.814 103.318 462.292 102.934 461.944C102.562 461.596 102.076 461.422 101.476 461.422C100.948 461.422 100.486 461.554 100.09 461.818C99.706 462.07 99.472 462.448 99.388 462.952H97.48C97.54 462.304 97.756 461.752 98.128 461.296C98.512 460.828 98.992 460.474 99.568 460.234C100.156 459.982 100.798 459.856 101.494 459.856C102.742 459.856 103.708 460.186 104.392 460.846C105.076 461.494 105.418 462.382 105.418 463.51V469H103.762L103.6 467.47C103.348 467.962 102.982 468.376 102.502 468.712C102.022 469.048 101.392 469.216 100.612 469.216ZM100.99 467.668C101.506 467.668 101.938 467.548 102.286 467.308C102.646 467.056 102.922 466.726 103.114 466.318C103.318 465.91 103.444 465.46 103.492 464.968H101.368C100.612 464.968 100.072 465.1 99.748 465.364C99.436 465.628 99.28 465.958 99.28 466.354C99.28 466.762 99.43 467.086 99.73 467.326C100.042 467.554 100.462 467.668 100.99 467.668ZM107.103 472.96V460.072H108.813L109.011 461.458C109.299 461.038 109.695 460.666 110.199 460.342C110.703 460.018 111.351 459.856 112.143 459.856C113.007 459.856 113.769 460.06 114.429 460.468C115.089 460.876 115.605 461.434 115.977 462.142C116.361 462.85 116.553 463.654 116.553 464.554C116.553 465.454 116.361 466.258 115.977 466.966C115.605 467.662 115.089 468.214 114.429 468.622C113.769 469.018 113.001 469.216 112.125 469.216C111.429 469.216 110.811 469.078 110.271 468.802C109.743 468.526 109.323 468.136 109.011 467.632V472.96H107.103ZM111.801 467.56C112.617 467.56 113.289 467.284 113.817 466.732C114.345 466.168 114.609 465.436 114.609 464.536C114.609 463.948 114.489 463.426 114.249 462.97C114.009 462.514 113.679 462.16 113.259 461.908C112.839 461.644 112.353 461.512 111.801 461.512C110.985 461.512 110.313 461.794 109.785 462.358C109.269 462.922 109.011 463.648 109.011 464.536C109.011 465.436 109.269 466.168 109.785 466.732C110.313 467.284 110.985 467.56 111.801 467.56ZM121.469 469C120.593 469 119.897 468.79 119.381 468.37C118.865 467.938 118.607 467.176 118.607 466.084V461.674H117.077V460.072H118.607L118.841 457.804H120.515V460.072H123.035V461.674H120.515V466.084C120.515 466.576 120.617 466.918 120.821 467.11C121.037 467.29 121.403 467.38 121.919 467.38H122.945V469H121.469ZM128.41 469.216C127.558 469.216 126.79 469.024 126.106 468.64C125.434 468.244 124.9 467.698 124.504 467.002C124.108 466.294 123.91 465.472 123.91 464.536C123.91 463.6 124.108 462.784 124.504 462.088C124.912 461.38 125.458 460.834 126.142 460.45C126.826 460.054 127.588 459.856 128.428 459.856C129.28 459.856 130.042 460.054 130.714 460.45C131.398 460.834 131.938 461.38 132.334 462.088C132.742 462.784 132.946 463.6 132.946 464.536C132.946 465.472 132.742 466.294 132.334 467.002C131.938 467.698 131.398 468.244 130.714 468.64C130.03 469.024 129.262 469.216 128.41 469.216ZM128.41 467.578C128.866 467.578 129.286 467.464 129.67 467.236C130.066 467.008 130.384 466.672 130.624 466.228C130.864 465.772 130.984 465.208 130.984 464.536C130.984 463.864 130.864 463.306 130.624 462.862C130.396 462.406 130.084 462.064 129.688 461.836C129.304 461.608 128.884 461.494 128.428 461.494C127.972 461.494 127.546 461.608 127.15 461.836C126.766 462.064 126.454 462.406 126.214 462.862C125.974 463.306 125.854 463.864 125.854 464.536C125.854 465.208 125.974 465.772 126.214 466.228C126.454 466.672 126.766 467.008 127.15 467.236C127.534 467.464 127.954 467.578 128.41 467.578ZM134.469 472.96V460.072H136.179L136.377 461.458C136.665 461.038 137.061 460.666 137.565 460.342C138.069 460.018 138.717 459.856 139.509 459.856C140.373 459.856 141.135 460.06 141.795 460.468C142.455 460.876 142.971 461.434 143.343 462.142C143.727 462.85 143.919 463.654 143.919 464.554C143.919 465.454 143.727 466.258 143.343 466.966C142.971 467.662 142.455 468.214 141.795 468.622C141.135 469.018 140.367 469.216 139.491 469.216C138.795 469.216 138.177 469.078 137.637 468.802C137.109 468.526 136.689 468.136 136.377 467.632V472.96H134.469ZM139.167 467.56C139.983 467.56 140.655 467.284 141.183 466.732C141.711 466.168 141.975 465.436 141.975 464.536C141.975 463.948 141.855 463.426 141.615 462.97C141.375 462.514 141.045 462.16 140.625 461.908C140.205 461.644 139.719 461.512 139.167 461.512C138.351 461.512 137.679 461.794 137.151 462.358C136.635 462.922 136.377 463.648 136.377 464.536C136.377 465.436 136.635 466.168 137.151 466.732C137.679 467.284 138.351 467.56 139.167 467.56Z" fill="#1A191E"/>
<path d="M58.4304 488.537V489.531H48.2884V488.537H58.4304ZM58.4304 490.685V491.679H48.2884V490.685H58.4304ZM57.4709 484.818V495H56.054L50.8786 487.533H50.7891V495H49.2479V484.818H50.6747L55.8501 492.295H55.9446V484.818H57.4709ZM59.4844 493.011V491.768L63.8842 484.818H64.8636V486.648H64.2422L61.0952 491.629V491.709H67.1257V493.011H59.4844ZM64.3118 495V492.634L64.3217 492.067V484.818H65.7784V495H64.3118ZM72.4031 495.169C71.6175 495.166 70.9464 494.959 70.3896 494.548C69.8327 494.137 69.4068 493.538 69.1119 492.753C68.8169 491.967 68.6694 491.021 68.6694 489.914C68.6694 488.81 68.8169 487.867 69.1119 487.085C69.4102 486.303 69.8377 485.706 70.3945 485.295C70.9547 484.884 71.6242 484.679 72.4031 484.679C73.1819 484.679 73.8498 484.886 74.4066 485.3C74.9634 485.711 75.3893 486.308 75.6843 487.09C75.9826 487.869 76.1317 488.81 76.1317 489.914C76.1317 491.024 75.9843 491.972 75.6893 492.758C75.3943 493.54 74.9684 494.138 74.4116 494.553C73.8548 494.964 73.1853 495.169 72.4031 495.169ZM72.4031 493.842C73.0924 493.842 73.631 493.505 74.0188 492.832C74.4099 492.16 74.6055 491.187 74.6055 489.914C74.6055 489.069 74.516 488.355 74.337 487.771C74.1613 487.185 73.9078 486.741 73.5763 486.439C73.2482 486.134 72.8571 485.982 72.4031 485.982C71.717 485.982 71.1784 486.32 70.7873 486.996C70.3962 487.672 70.199 488.645 70.1957 489.914C70.1957 490.763 70.2835 491.48 70.4592 492.067C70.6381 492.65 70.8917 493.093 71.2198 493.394C71.5479 493.692 71.9424 493.842 72.4031 493.842ZM81.4402 495.169C80.6547 495.166 79.9835 494.959 79.4267 494.548C78.8699 494.137 78.444 493.538 78.149 492.753C77.854 491.967 77.7065 491.021 77.7065 489.914C77.7065 488.81 77.854 487.867 78.149 487.085C78.4473 486.303 78.8748 485.706 79.4316 485.295C79.9918 484.884 80.6613 484.679 81.4402 484.679C82.219 484.679 82.8869 484.886 83.4437 485.3C84.0005 485.711 84.4264 486.308 84.7214 487.09C85.0197 487.869 85.1689 488.81 85.1689 489.914C85.1689 491.024 85.0214 491.972 84.7264 492.758C84.4314 493.54 84.0055 494.138 83.4487 494.553C82.8919 494.964 82.2224 495.169 81.4402 495.169ZM81.4402 493.842C82.1296 493.842 82.6681 493.505 83.0559 492.832C83.447 492.16 83.6426 491.187 83.6426 489.914C83.6426 489.069 83.5531 488.355 83.3741 487.771C83.1984 487.185 82.9449 486.741 82.6135 486.439C82.2853 486.134 81.8942 485.982 81.4402 485.982C80.7541 485.982 80.2155 486.32 79.8244 486.996C79.4333 487.672 79.2361 488.645 79.2328 489.914C79.2328 490.763 79.3206 491.48 79.4963 492.067C79.6752 492.65 79.9288 493.093 80.2569 493.394C80.585 493.692 80.9795 493.842 81.4402 493.842ZM88.5172 493.608L88.4426 494.15C88.3929 494.548 88.3084 494.962 88.1891 495.393C88.0731 495.827 87.9521 496.23 87.8262 496.601C87.7035 496.972 87.6025 497.267 87.5229 497.486H86.4689C86.512 497.28 86.5717 497.002 86.6479 496.651C86.7241 496.303 86.7987 495.913 86.8716 495.482C86.9445 495.051 86.9992 494.612 87.0357 494.165L87.0854 493.608H88.5172ZM93.7722 495.169C92.9867 495.166 92.3155 494.959 91.7587 494.548C91.2019 494.137 90.776 493.538 90.481 492.753C90.186 491.967 90.0385 491.021 90.0385 489.914C90.0385 488.81 90.186 487.867 90.481 487.085C90.7793 486.303 91.2069 485.706 91.7637 485.295C92.3238 484.884 92.9933 484.679 93.7722 484.679C94.5511 484.679 95.2189 484.886 95.7757 485.3C96.3326 485.711 96.7585 486.308 97.0534 487.09C97.3517 487.869 97.5009 488.81 97.5009 489.914C97.5009 491.024 97.3534 491.972 97.0584 492.758C96.7634 493.54 96.3375 494.138 95.7807 494.553C95.2239 494.964 94.5544 495.169 93.7722 495.169ZM93.7722 493.842C94.4616 493.842 95.0002 493.505 95.388 492.832C95.7791 492.16 95.9746 491.187 95.9746 489.914C95.9746 489.069 95.8851 488.355 95.7061 487.771C95.5305 487.185 95.2769 486.741 94.9455 486.439C94.6174 486.134 94.2263 485.982 93.7722 485.982C93.0861 485.982 92.5475 486.32 92.1564 486.996C91.7653 487.672 91.5681 488.645 91.5648 489.914C91.5648 490.763 91.6526 491.48 91.8283 492.067C92.0073 492.65 92.2608 493.093 92.589 493.394C92.9171 493.692 93.3115 493.842 93.7722 493.842ZM102.809 495.169C102.024 495.166 101.353 494.959 100.796 494.548C100.239 494.137 99.8131 493.538 99.5181 492.753C99.2231 491.967 99.0756 491.021 99.0756 489.914C99.0756 488.81 99.2231 487.867 99.5181 487.085C99.8164 486.303 100.244 485.706 100.801 485.295C101.361 484.884 102.03 484.679 102.809 484.679C103.588 484.679 104.256 484.886 104.813 485.3C105.37 485.711 105.796 486.308 106.091 487.09C106.389 487.869 106.538 488.81 106.538 489.914C106.538 491.024 106.391 491.972 106.096 492.758C105.801 493.54 105.375 494.138 104.818 494.553C104.261 494.964 103.592 495.169 102.809 495.169ZM102.809 493.842C103.499 493.842 104.037 493.505 104.425 492.832C104.816 492.16 105.012 491.187 105.012 489.914C105.012 489.069 104.922 488.355 104.743 487.771C104.568 487.185 104.314 486.741 103.983 486.439C103.654 486.134 103.263 485.982 102.809 485.982C102.123 485.982 101.585 486.32 101.194 486.996C100.802 487.672 100.605 488.645 100.602 489.914C100.602 490.763 100.69 491.48 100.865 492.067C101.044 492.65 101.298 493.093 101.626 493.394C101.954 493.692 102.349 493.842 102.809 493.842ZM111.846 495.169C111.061 495.166 110.39 494.959 109.833 494.548C109.276 494.137 108.85 493.538 108.555 492.753C108.26 491.967 108.113 491.021 108.113 489.914C108.113 488.81 108.26 487.867 108.555 487.085C108.854 486.303 109.281 485.706 109.838 485.295C110.398 484.884 111.068 484.679 111.846 484.679C112.625 484.679 113.293 484.886 113.85 485.3C114.407 485.711 114.833 486.308 115.128 487.09C115.426 487.869 115.575 488.81 115.575 489.914C115.575 491.024 115.428 491.972 115.133 492.758C114.838 493.54 114.412 494.138 113.855 494.553C113.298 494.964 112.629 495.169 111.846 495.169ZM111.846 493.842C112.536 493.842 113.074 493.505 113.462 492.832C113.853 492.16 114.049 491.187 114.049 489.914C114.049 489.069 113.959 488.355 113.78 487.771C113.605 487.185 113.351 486.741 113.02 486.439C112.692 486.134 112.3 485.982 111.846 485.982C111.16 485.982 110.622 486.32 110.231 486.996C109.84 487.672 109.642 488.645 109.639 489.914C109.639 490.763 109.727 491.48 109.903 492.067C110.081 492.65 110.335 493.093 110.663 493.394C110.991 493.692 111.386 493.842 111.846 493.842Z" fill="#1A191E" fill-opacity="0.5"/>
<rect x="232" y="282" width="160" height="160" rx="16" fill="#F1DFDF"/>
<g clip-path="url(#clip1_1303_3365)">
<path d="M289.999 374C293.913 374 297.265 376.27 298.909 379.544L305.863 376.066C302.975 370.116 296.891 366 289.831 366C287.314 366.001 284.827 366.537 282.533 367.574L285.869 374.914C287.164 374.317 288.573 374.005 289.999 374ZM333.999 374C336.933 374 339.543 375.286 341.375 377.296L347.169 372.026C345.501 370.132 343.449 368.615 341.149 367.576C338.85 366.537 336.355 366 333.831 366C326.679 366 320.527 370.222 317.685 376.3L324.981 379.744C326.585 376.36 330.005 374 333.999 374Z" fill="#EA596E"/>
<path d="M290 370C288.161 370 286.341 370.362 284.642 371.066C282.944 371.769 281.401 372.8 280.101 374.101C278.8 375.401 277.769 376.944 277.066 378.642C276.362 380.341 276 382.161 276 384C276 385.839 276.362 387.659 277.066 389.358C277.769 391.056 278.8 392.599 280.101 393.899C281.401 395.2 282.944 396.231 284.642 396.934C286.341 397.638 288.161 398 290 398C293.713 398 297.274 396.525 299.899 393.899C302.525 391.274 304 387.713 304 384C304 380.287 302.525 376.726 299.899 374.101C297.274 371.475 293.713 370 290 370ZM290 394C287.348 394 284.804 392.946 282.929 391.071C281.054 389.196 280 386.652 280 384C280 381.348 281.054 378.804 282.929 376.929C284.804 375.054 287.348 374 290 374C292.652 374 295.196 375.054 297.071 376.929C298.946 378.804 300 381.348 300 384C300 386.652 298.946 389.196 297.071 391.071C295.196 392.946 292.652 394 290 394ZM334 370C330.287 370 326.726 371.476 324.1 374.102C321.475 376.727 320 380.289 320 384.002C320 387.715 321.476 391.276 324.102 393.902C326.727 396.527 330.289 398.002 334.002 398.002C335.841 398.002 337.661 397.64 339.36 396.936C341.059 396.232 342.602 395.201 343.902 393.9C345.202 392.6 346.233 391.057 346.937 389.358C347.64 387.659 348.002 385.839 348.002 384C348.002 382.161 347.64 380.341 346.936 378.642C346.232 376.943 345.201 375.4 343.9 374.1C342.6 372.8 341.057 371.769 339.358 371.065C337.659 370.362 335.839 370 334 370ZM334 394C331.348 394 328.804 392.946 326.929 391.071C325.054 389.196 324 386.652 324 384C324 381.348 325.054 378.804 326.929 376.929C328.804 375.054 331.348 374 334 374C336.652 374 339.196 375.054 341.071 376.929C342.946 378.804 344 381.348 344 384C344 386.652 342.946 389.196 341.071 391.071C339.196 392.946 336.652 394 334 394Z" fill="#292F33"/>
<path d="M335.968 383.844C335.955 383.71 335.928 383.577 335.888 383.448C335.853 383.32 335.805 383.195 335.746 383.076C335.72 383.028 335.716 382.972 335.688 382.926L321.688 360.926C321.547 360.704 321.364 360.512 321.149 360.362C320.933 360.211 320.691 360.104 320.434 360.047C320.178 359.99 319.913 359.984 319.654 360.029C319.395 360.075 319.148 360.171 318.926 360.312C318.647 360.494 318.418 360.745 318.263 361.04C318.107 361.335 318.029 361.665 318.036 361.998H300C299.47 361.998 298.961 362.209 298.586 362.584C298.211 362.959 298 363.468 298 363.998C298 364.528 298.211 365.037 298.586 365.412C298.961 365.787 299.47 365.998 300 365.998H320C320.054 365.998 320.1 365.97 320.154 365.966L330.356 382H312C311.47 382 310.961 382.211 310.586 382.586C310.211 382.961 310 383.47 310 384C310 384.53 310.211 385.039 310.586 385.414C310.961 385.789 311.47 386 312 386H334.002C334.309 385.993 334.61 385.917 334.882 385.776C334.944 385.742 335.014 385.728 335.076 385.688C335.136 385.648 335.172 385.586 335.226 385.544C335.433 385.383 335.604 385.181 335.728 384.95C335.788 384.838 335.838 384.73 335.878 384.606C335.919 384.475 335.945 384.34 335.958 384.204C335.966 384.132 336 384.072 336 384C336 383.946 335.972 383.898 335.968 383.844Z" fill="#DD2E44"/>
<path d="M319.162 358L313.364 374.234L301.506 360.684C301.334 360.483 301.124 360.318 300.888 360.199C300.651 360.08 300.394 360.009 300.13 359.99C299.866 359.971 299.601 360.004 299.351 360.088C299.1 360.172 298.868 360.305 298.669 360.479C298.47 360.653 298.308 360.865 298.191 361.103C298.075 361.34 298.006 361.598 297.99 361.862C297.974 362.126 298.01 362.391 298.097 362.641C298.184 362.891 298.319 363.121 298.496 363.318L311.824 378.548L310.116 383.328C309.938 383.828 309.965 384.378 310.192 384.857C310.42 385.336 310.828 385.706 311.328 385.884C311.828 386.062 312.378 386.035 312.857 385.807C313.336 385.58 313.706 385.172 313.884 384.672L323.41 358H319.162Z" fill="#DD2E44"/>
<path d="M290.001 386C289.66 386 289.325 385.912 289.028 385.746C288.731 385.58 288.481 385.34 288.302 385.05C288.123 384.761 288.021 384.43 288.006 384.09C287.991 383.749 288.063 383.411 288.215 383.106L294.339 370.894C294.373 370.838 298.001 365.302 298.001 360C298.001 353.516 293.415 351.914 293.369 351.898C293.116 351.818 292.883 351.688 292.681 351.516C292.479 351.345 292.313 351.135 292.194 350.898C292.074 350.662 292.002 350.405 291.982 350.14C291.963 349.876 291.996 349.611 292.08 349.36C292.163 349.108 292.296 348.876 292.471 348.677C292.645 348.477 292.857 348.314 293.095 348.198C293.332 348.081 293.591 348.012 293.855 347.996C294.12 347.98 294.385 348.017 294.635 348.104C294.935 348.204 302.001 350.666 302.001 360C302.001 366.136 298.329 372.084 297.739 372.994L291.791 384.892C291.626 385.225 291.37 385.506 291.054 385.702C290.738 385.897 290.373 386.001 290.001 386Z" fill="#DD2E44"/>
<path d="M305.224 353.326C305.113 353.326 305.003 353.317 304.894 353.298L292.894 351.298C292.371 351.211 291.903 350.919 291.595 350.487C291.287 350.056 291.163 349.519 291.25 348.996C291.337 348.473 291.629 348.006 292.06 347.697C292.492 347.389 293.029 347.265 293.552 347.352L305.552 349.352C306.048 349.433 306.496 349.698 306.806 350.094C307.116 350.491 307.265 350.989 307.224 351.49C307.182 351.992 306.954 352.459 306.583 352.799C306.212 353.14 305.727 353.328 305.224 353.326ZM328.766 360C328.706 360 328.647 359.996 328.588 359.988L317.244 358.572C316.875 358.541 316.533 358.367 316.29 358.087C316.048 357.807 315.925 357.443 315.948 357.074C315.971 356.704 316.137 356.358 316.412 356.11C316.687 355.862 317.048 355.731 317.418 355.746C317.5 355.746 325.552 355.71 329.396 353.148C329.642 352.985 329.933 352.902 330.228 352.912C330.523 352.921 330.808 353.022 331.044 353.2C331.278 353.38 331.45 353.629 331.536 353.911C331.622 354.193 331.619 354.496 331.526 354.776L330.108 359.03C330.015 359.313 329.835 359.558 329.594 359.733C329.353 359.907 329.063 360 328.766 360Z" fill="#292F33"/>
<path d="M316 384C316 385.061 315.579 386.078 314.828 386.828C314.078 387.579 313.061 388 312 388C310.939 388 309.922 387.579 309.172 386.828C308.421 386.078 308 385.061 308 384C308 382.939 308.421 381.922 309.172 381.172C309.922 380.421 310.939 380 312 380C313.061 380 314.078 380.421 314.828 381.172C315.579 381.922 316 382.939 316 384Z" fill="#66757F"/>
</g>
<path d="M233.278 469V456.4H237.364C238.84 456.4 240.052 456.658 241 457.174C241.96 457.69 242.668 458.422 243.124 459.37C243.592 460.306 243.826 461.422 243.826 462.718C243.826 464.002 243.592 465.118 243.124 466.066C242.668 467.002 241.96 467.728 241 468.244C240.052 468.748 238.84 469 237.364 469H233.278ZM235.186 467.38H237.292C238.432 467.38 239.332 467.194 239.992 466.822C240.664 466.45 241.144 465.916 241.432 465.22C241.732 464.524 241.882 463.69 241.882 462.718C241.882 461.746 241.732 460.906 241.432 460.198C241.144 459.49 240.664 458.95 239.992 458.578C239.332 458.194 238.432 458.002 237.292 458.002H235.186V467.38ZM245.322 469V460.072H247.032L247.194 461.764C247.506 461.176 247.938 460.714 248.49 460.378C249.054 460.03 249.732 459.856 250.524 459.856V461.854H250.002C249.474 461.854 249 461.944 248.58 462.124C248.172 462.292 247.842 462.586 247.59 463.006C247.35 463.414 247.23 463.984 247.23 464.716V469H245.322ZM255.55 469.216C254.674 469.216 253.894 469.024 253.21 468.64C252.538 468.244 252.01 467.698 251.626 467.002C251.242 466.306 251.05 465.496 251.05 464.572C251.05 463.636 251.236 462.814 251.608 462.106C251.992 461.398 252.52 460.846 253.192 460.45C253.876 460.054 254.668 459.856 255.568 459.856C256.444 459.856 257.206 460.054 257.854 460.45C258.502 460.834 259.006 461.35 259.366 461.998C259.726 462.646 259.906 463.36 259.906 464.14C259.906 464.26 259.9 464.392 259.888 464.536C259.888 464.668 259.882 464.818 259.87 464.986H252.922C252.982 465.85 253.264 466.51 253.768 466.966C254.284 467.41 254.878 467.632 255.55 467.632C256.09 467.632 256.54 467.512 256.9 467.272C257.272 467.02 257.548 466.684 257.728 466.264H259.636C259.396 467.104 258.916 467.806 258.196 468.37C257.488 468.934 256.606 469.216 255.55 469.216ZM255.55 461.422C254.914 461.422 254.35 461.614 253.858 461.998C253.366 462.37 253.066 462.934 252.958 463.69H257.998C257.962 462.994 257.716 462.442 257.26 462.034C256.804 461.626 256.234 461.422 255.55 461.422ZM264.37 469.216C263.614 469.216 262.99 469.09 262.498 468.838C262.006 468.586 261.64 468.256 261.4 467.848C261.16 467.428 261.04 466.972 261.04 466.48C261.04 465.616 261.376 464.932 262.048 464.428C262.72 463.924 263.68 463.672 264.928 463.672H267.268V463.51C267.268 462.814 267.076 462.292 266.692 461.944C266.32 461.596 265.834 461.422 265.234 461.422C264.706 461.422 264.244 461.554 263.848 461.818C263.464 462.07 263.23 462.448 263.146 462.952H261.238C261.298 462.304 261.514 461.752 261.886 461.296C262.27 460.828 262.75 460.474 263.326 460.234C263.914 459.982 264.556 459.856 265.252 459.856C266.5 459.856 267.466 460.186 268.15 460.846C268.834 461.494 269.176 462.382 269.176 463.51V469H267.52L267.358 467.47C267.106 467.962 266.74 468.376 266.26 468.712C265.78 469.048 265.15 469.216 264.37 469.216ZM264.748 467.668C265.264 467.668 265.696 467.548 266.044 467.308C266.404 467.056 266.68 466.726 266.872 466.318C267.076 465.91 267.202 465.46 267.25 464.968H265.126C264.37 464.968 263.83 465.1 263.506 465.364C263.194 465.628 263.038 465.958 263.038 466.354C263.038 466.762 263.188 467.086 263.488 467.326C263.8 467.554 264.22 467.668 264.748 467.668ZM270.86 469V460.072H272.552L272.714 461.332C273.002 460.876 273.38 460.516 273.848 460.252C274.328 459.988 274.88 459.856 275.504 459.856C276.92 459.856 277.904 460.414 278.456 461.53C278.78 461.014 279.212 460.606 279.752 460.306C280.304 460.006 280.898 459.856 281.534 459.856C282.65 459.856 283.526 460.192 284.162 460.864C284.798 461.536 285.116 462.538 285.116 463.87V469H283.208V464.068C283.208 462.34 282.548 461.476 281.228 461.476C280.556 461.476 280.004 461.728 279.572 462.232C279.152 462.736 278.942 463.456 278.942 464.392V469H277.034V464.068C277.034 462.34 276.368 461.476 275.036 461.476C274.376 461.476 273.83 461.728 273.398 462.232C272.978 462.736 272.768 463.456 272.768 464.392V469H270.86ZM295.826 469.216C295.13 469.216 294.512 469.078 293.972 468.802C293.444 468.526 293.024 468.136 292.712 467.632L292.514 469H290.804V456.04H292.712V461.458C293 461.038 293.396 460.666 293.9 460.342C294.404 460.018 295.052 459.856 295.844 459.856C296.708 459.856 297.47 460.06 298.13 460.468C298.79 460.876 299.306 461.434 299.678 462.142C300.062 462.85 300.254 463.654 300.254 464.554C300.254 465.454 300.062 466.258 299.678 466.966C299.306 467.662 298.79 468.214 298.13 468.622C297.47 469.018 296.702 469.216 295.826 469.216ZM295.502 467.56C296.318 467.56 296.99 467.284 297.518 466.732C298.046 466.168 298.31 465.436 298.31 464.536C298.31 463.948 298.19 463.426 297.95 462.97C297.71 462.514 297.38 462.16 296.96 461.908C296.54 461.644 296.054 461.512 295.502 461.512C294.686 461.512 294.014 461.794 293.486 462.358C292.97 462.922 292.712 463.648 292.712 464.536C292.712 465.436 292.97 466.168 293.486 466.732C294.014 467.284 294.686 467.56 295.502 467.56ZM302.858 458.38C302.498 458.38 302.198 458.272 301.958 458.056C301.73 457.828 301.616 457.546 301.616 457.21C301.616 456.874 301.73 456.598 301.958 456.382C302.198 456.154 302.498 456.04 302.858 456.04C303.218 456.04 303.512 456.154 303.74 456.382C303.98 456.598 304.1 456.874 304.1 457.21C304.1 457.546 303.98 457.828 303.74 458.056C303.512 458.272 303.218 458.38 302.858 458.38ZM301.904 469V460.072H303.812V469H301.904ZM305.79 469V456.04H307.698V463.762L311.118 460.072H313.404L309.606 464.122L313.962 469H311.55L307.698 464.428V469H305.79ZM318.391 469.216C317.515 469.216 316.735 469.024 316.051 468.64C315.379 468.244 314.851 467.698 314.467 467.002C314.083 466.306 313.891 465.496 313.891 464.572C313.891 463.636 314.077 462.814 314.449 462.106C314.833 461.398 315.361 460.846 316.033 460.45C316.717 460.054 317.509 459.856 318.409 459.856C319.285 459.856 320.047 460.054 320.695 460.45C321.343 460.834 321.847 461.35 322.207 461.998C322.567 462.646 322.747 463.36 322.747 464.14C322.747 464.26 322.741 464.392 322.729 464.536C322.729 464.668 322.723 464.818 322.711 464.986H315.763C315.823 465.85 316.105 466.51 316.609 466.966C317.125 467.41 317.719 467.632 318.391 467.632C318.931 467.632 319.381 467.512 319.741 467.272C320.113 467.02 320.389 466.684 320.569 466.264H322.477C322.237 467.104 321.757 467.806 321.037 468.37C320.329 468.934 319.447 469.216 318.391 469.216ZM318.391 461.422C317.755 461.422 317.191 461.614 316.699 461.998C316.207 462.37 315.907 462.934 315.799 463.69H320.839C320.803 462.994 320.557 462.442 320.101 462.034C319.645 461.626 319.075 461.422 318.391 461.422Z" fill="#1A191E"/>
<path d="M242.43 488.537V489.531H232.288V488.537H242.43ZM242.43 490.685V491.679H232.288V490.685H242.43ZM241.471 484.818V495H240.054L234.879 487.533H234.789V495H233.248V484.818H234.675L239.85 492.295H239.945V484.818H241.471ZM243.698 495V493.886L247.143 490.317C247.511 489.929 247.815 489.589 248.053 489.298C248.295 489.003 248.476 488.723 248.595 488.457C248.714 488.192 248.774 487.911 248.774 487.612C248.774 487.274 248.695 486.982 248.536 486.737C248.376 486.489 248.159 486.298 247.884 486.165C247.609 486.03 247.299 485.962 246.955 485.962C246.59 485.962 246.272 486.036 246 486.185C245.728 486.335 245.519 486.545 245.374 486.817C245.228 487.089 245.155 487.407 245.155 487.771H243.688C243.688 487.152 243.831 486.61 244.116 486.146C244.401 485.682 244.792 485.322 245.289 485.067C245.786 484.808 246.351 484.679 246.984 484.679C247.624 484.679 248.188 484.807 248.675 485.062C249.165 485.314 249.548 485.658 249.823 486.096C250.098 486.53 250.236 487.021 250.236 487.567C250.236 487.945 250.165 488.315 250.022 488.676C249.883 489.037 249.639 489.44 249.291 489.884C248.943 490.325 248.459 490.86 247.839 491.49L245.816 493.608V493.683H250.4V495H243.698ZM255.829 495.169C255.043 495.166 254.372 494.959 253.815 494.548C253.259 494.137 252.833 493.538 252.538 492.753C252.243 491.967 252.095 491.021 252.095 489.914C252.095 488.81 252.243 487.867 252.538 487.085C252.836 486.303 253.263 485.706 253.82 485.295C254.38 484.884 255.05 484.679 255.829 484.679C256.608 484.679 257.276 484.886 257.832 485.3C258.389 485.711 258.815 486.308 259.11 487.09C259.408 487.869 259.558 488.81 259.558 489.914C259.558 491.024 259.41 491.972 259.115 492.758C258.82 493.54 258.394 494.138 257.837 494.553C257.281 494.964 256.611 495.169 255.829 495.169ZM255.829 493.842C256.518 493.842 257.057 493.505 257.445 492.832C257.836 492.16 258.031 491.187 258.031 489.914C258.031 489.069 257.942 488.355 257.763 487.771C257.587 487.185 257.334 486.741 257.002 486.439C256.674 486.134 256.283 485.982 255.829 485.982C255.143 485.982 254.604 486.32 254.213 486.996C253.822 487.672 253.625 488.645 253.621 489.914C253.621 490.763 253.709 491.48 253.885 492.067C254.064 492.65 254.317 493.093 254.646 493.394C254.974 493.692 255.368 493.842 255.829 493.842ZM262.906 493.608L262.831 494.15C262.782 494.548 262.697 494.962 262.578 495.393C262.462 495.827 262.341 496.23 262.215 496.601C262.092 496.972 261.991 497.267 261.912 497.486H260.858C260.901 497.28 260.96 497.002 261.037 496.651C261.113 496.303 261.187 495.913 261.26 495.482C261.333 495.051 261.388 494.612 261.424 494.165L261.474 493.608H262.906ZM268.161 495.169C267.375 495.166 266.704 494.959 266.147 494.548C265.591 494.137 265.165 493.538 264.87 492.753C264.575 491.967 264.427 491.021 264.427 489.914C264.427 488.81 264.575 487.867 264.87 487.085C265.168 486.303 265.596 485.706 266.152 485.295C266.712 484.884 267.382 484.679 268.161 484.679C268.94 484.679 269.608 484.886 270.164 485.3C270.721 485.711 271.147 486.308 271.442 487.09C271.74 487.869 271.89 488.81 271.89 489.914C271.89 491.024 271.742 491.972 271.447 492.758C271.152 493.54 270.726 494.138 270.169 494.553C269.613 494.964 268.943 495.169 268.161 495.169ZM268.161 493.842C268.85 493.842 269.389 493.505 269.777 492.832C270.168 492.16 270.363 491.187 270.363 489.914C270.363 489.069 270.274 488.355 270.095 487.771C269.919 487.185 269.666 486.741 269.334 486.439C269.006 486.134 268.615 485.982 268.161 485.982C267.475 485.982 266.936 486.32 266.545 486.996C266.154 487.672 265.957 488.645 265.953 489.914C265.953 490.763 266.041 491.48 266.217 492.067C266.396 492.65 266.65 493.093 266.978 493.394C267.306 493.692 267.7 493.842 268.161 493.842ZM277.198 495.169C276.412 495.166 275.741 494.959 275.184 494.548C274.628 494.137 274.202 493.538 273.907 492.753C273.612 491.967 273.464 491.021 273.464 489.914C273.464 488.81 273.612 487.867 273.907 487.085C274.205 486.303 274.633 485.706 275.189 485.295C275.75 484.884 276.419 484.679 277.198 484.679C277.977 484.679 278.645 484.886 279.202 485.3C279.758 485.711 280.184 486.308 280.479 487.09C280.778 487.869 280.927 488.81 280.927 489.914C280.927 491.024 280.779 491.972 280.484 492.758C280.189 493.54 279.763 494.138 279.206 494.553C278.65 494.964 277.98 495.169 277.198 495.169ZM277.198 493.842C277.887 493.842 278.426 493.505 278.814 492.832C279.205 492.16 279.4 491.187 279.4 489.914C279.4 489.069 279.311 488.355 279.132 487.771C278.956 487.185 278.703 486.741 278.371 486.439C278.043 486.134 277.652 485.982 277.198 485.982C276.512 485.982 275.973 486.32 275.582 486.996C275.191 487.672 274.994 488.645 274.991 489.914C274.991 490.763 275.078 491.48 275.254 492.067C275.433 492.65 275.687 493.093 276.015 493.394C276.343 493.692 276.737 493.842 277.198 493.842ZM286.235 495.169C285.45 495.166 284.778 494.959 284.222 494.548C283.665 494.137 283.239 493.538 282.944 492.753C282.649 491.967 282.501 491.021 282.501 489.914C282.501 488.81 282.649 487.867 282.944 487.085C283.242 486.303 283.67 485.706 284.227 485.295C284.787 484.884 285.456 484.679 286.235 484.679C287.014 484.679 287.682 484.886 288.239 485.3C288.795 485.711 289.221 486.308 289.516 487.09C289.815 487.869 289.964 488.81 289.964 489.914C289.964 491.024 289.816 491.972 289.521 492.758C289.226 493.54 288.8 494.138 288.244 494.553C287.687 494.964 287.017 495.169 286.235 495.169ZM286.235 493.842C286.924 493.842 287.463 493.505 287.851 492.832C288.242 492.16 288.438 491.187 288.438 489.914C288.438 489.069 288.348 488.355 288.169 487.771C287.993 487.185 287.74 486.741 287.408 486.439C287.08 486.134 286.689 485.982 286.235 485.982C285.549 485.982 285.01 486.32 284.619 486.996C284.228 487.672 284.031 488.645 284.028 489.914C284.028 490.763 284.116 491.48 284.291 492.067C284.47 492.65 284.724 493.093 285.052 493.394C285.38 493.692 285.774 493.842 286.235 493.842Z" fill="#1A191E" fill-opacity="0.5"/>
</g>
<defs>
<clipPath id="clip0_1303_3365">
<rect x="0.666016" width="378.667" height="550" rx="20" fill="white"/>
</clipPath>
<clipPath id="clip1_1303_3365">
<rect width="72" height="72" fill="white" transform="translate(276 326)"/>
</clipPath>
</defs>
</svg>
